<svg width="110" height="110" fill="none" xmlns="http://www.w3.org/2000/svg"><g filter="url(#a)"><rect x="25" y="21" width="60" height="60" rx="15" fill="#CF51CE"/></g><path d="M46.5641 69.3297c-.6888-.3061-.995-.7653-.9184-1.5306v-1.2246H39.7526c-.9184 0-1.3776-.4592-1.3776-1.3776v-1.148c0-.3826.2296-.6122.5357-.6122.3062 0 .5358.2296.5358.6122v1.148c0 .1531.0765.2296.2296.2296h5.9696V61.906c-1.4542-.9184-1.9134-1.5307-2.143-3.2144-.9184 0-1.8368-.0765-2.6786 0-.7654.0765-1.3011.9184-1.3776 1.7603v1.0714c0 .3827-.2296.6123-.5358.6123-.3061 0-.5357-.2296-.5357-.6123v-1.2245c.0765-.9184.5357-1.6837 1.3011-2.2195.0765-.0765.153-.0765.2296-.153-.3062-.995-.6888-1.9134-.9184-2.8318-1.2246-4.8981-.4592-9.4136 2.3725-13.6229.1531-.2296.2296-.3827.0765-.6888-.3826-.7653-.2296-1.6837.3827-2.296.6123-.6123 1.4541-.8419 2.296-.4592.1531.1531.3061.0765.4592-.0765.9184-.6123 1.7603-1.2246 2.6787-1.8368.3826-.2296.6888-.1531.8418.153.1531.3062 0 .5358-.3061.7654-.8419.6122-1.6837 1.148-2.5256 1.7602-.1531.0766-.1531.2296-.0765.3827.3061.7653.153 1.5307-.3827 2.0664-.5357.6123-1.2245.8419-2.0664.6123-.2296-.0766-.3061 0-.4592.153-1.5307 2.2195-2.4491 4.6686-2.6787 7.4238-.3061 2.7552.1531 5.3573 1.2246 7.8829.0765.2296.2296.3061.5357.3061h3.1379c.0765-.3061 0-.4592-.1531-.6122-.9184-.7654-1.5307-1.6838-1.6837-2.8318 0-.2296-.0766-.3061-.3062-.3826-1.3776-.3827-1.8368-2.0664-.8418-3.1379.0765-.0765.153-.3061.153-.4592v-3.3675c0-1.6837 1.0715-2.9082 2.6022-3.2144.2296-.0765.5357-.0765.7653-.0765h3.444c.7653 0 1.5307.2296 2.1429.7653.0766.0766.2296.0766.3062.0766.6888-.3062 1.3776-.3827 2.1429-.3827h1.0715c.3061 0 .5357.2296.6122.5357 0 .3062-.2296.5358-.6122.5358h-1.6072c-1.3776 0-2.5256 1.0714-2.6022 2.449-.0765 1.148 0 2.296 0 3.444v.1531c.3062.0765.3062-.0765.3827-.3061.1531-.8419.4592-1.6072.9184-2.296.3061-.3827.4592-.4592.9184-.3062 1.4541.4592 2.8317.8419 4.3624.995.3827 0 .8418 0 1.2245-.0766.2296-.0765.5358-.2296.6888-.3826.3062-.3062.6888-.3062.9184.0765.3827.6123.6888 1.3011.7653 1.9899 0 .153.0766.3826.3062.3061v-2.5256c0-.3827-.0766-.6123-.5358-.6123-.3061-.0765-.4592-.3061-.4592-.6122 0-.6123-.2295-1.0715-.6122-1.5307-.4592-.5357-1.0715-.7653-1.6837-.7653h-.6123c-.3061 0-.5357-.2296-.5357-.5358 0-.3061.2296-.5357.5357-.5357.8419-.0765 1.6837.0765 2.3725.4592.7653-.7653 1.6837-.9949 2.6787-.9184h3.3674c1.4542 0 2.6022.9184 2.9848 2.296 0 .0765.0766.2296.2296.3061.4592.3062.6888.7654.6888 1.3011v2.6021c0 .1531.0766.3827.2296.4592.995 1.0715.5358 2.6787-.8418 3.1379-.2296.0765-.2296.1531-.3062.3061-.2296 1.148-.7653 2.143-1.6837 2.9083-.1531.0765-.1531.3061-.3061.4592l.0765.0765h3.2144c.3061 0 .3827-.0765.5357-.3061 1.0715-2.5256 1.4542-5.1277 1.2246-7.8064-.2296-2.6787-1.148-5.1277-2.6022-7.3472-.153-.2296-.3061-.3061-.5357-.2296-.7653.2296-1.4541 0-1.9899-.6123-.5357-.6122-.6888-1.301-.3826-2.0664-.0766 0-.1531-.153-.3062-.3061-2.2194-1.7603-4.745-2.9083-7.5767-3.3675-.3062-.0765-.4592 0-.6123.3062-.7653 1.3776-2.7552 1.301-3.5205 0-.1531-.2296-.3062-.3062-.5358-.2296l-2.7552.6888c-.153.0765-.4592.0765-.6122 0-.1531-.0766-.3062-.3062-.2296-.4592.0765-.1531.2296-.4592.3826-.4592.9184-.3062 1.7603-.4592 2.6787-.6888h.1531c.4592 0 .6888-.1531.8418-.6123.3827-.9184 1.0715-1.301 1.9899-1.301.8419.0765 1.5307.4591 1.8368 1.301.1531.3061.3061.3827.6122.4592 3.0614.4592 5.74 1.6072 8.1126 3.5971.2296.153.3826.2296.6888.0765.7653-.3061 1.6837-.0765 2.2194.5357.5358.6123.6888 1.5307.3062 2.296-.0766.1531-.1531.3062 0 .5358 3.444 5.1277 3.9032 10.5616 1.6072 16.3016 0 .0765-.0766.153-.0766.2296.1531.0765.2296.153.3827.3061.7653.6123 1.148 1.3776 1.148 2.3725v4.6686c0 .9184-.4592 1.3776-1.3776 1.3776H64.932v1.2245c.0766.7653-.2296 1.2245-.9184 1.5306-5.893-.0765-11.633-.0765-17.4495-.0765Zm12.5514-8.7248c-.2296 2.4491-2.0664 3.7502-3.8266 3.7502-.9184 0-1.6838-.2296-2.3726-.8419-.9949-.7653-1.4541-1.7603-1.5306-2.9848h-2.4491c-1.3776 0-2.2195.8419-2.2195 2.2195v5.0512c0 .3061.0766.4592.4592.4592h16.3016c.1531 0 .3827.0765.3827-.2296v-5.4339c0-.9949-.8419-1.9133-1.7603-1.9133-1.0715-.1531-1.9899-.0766-2.9848-.0766Zm-.2296-10.485c-2.449.8418-4.592-.0766-6.8114-.6123-.0766.0765-.1531.1531-.1531.3061-.3827.5358-.5357 1.148-.5357 1.7603 0 1.3011-.0766 2.6021.0765 3.8267.2296 1.9898 2.0664 3.444 4.0563 3.2909 1.9898-.1531 3.597-1.7603 3.597-3.7501v-3.444c0-.4592-.1531-.9184-.2296-1.3776Zm-14.924-1.148c-.0765.4592-.2296.8418-.3061 1.2245-.0765 1.148-.0765 2.3725 0 3.5205.1531 2.0664 1.9899 3.444 3.9797 3.1379.995-.1531 1.8368-.7653 2.3726-1.6072-.0766 0-.1531-.0765-.1531-.0765-1.3011-.5358-1.7603-1.7603-1.0715-2.9848 0-.0766.0766-.0766.0766-.1531v-2.2195c-1.6838 0-3.2144-.3826-4.8982-.8418Zm27.0163 16.5312v-5.1278c0-.7653-.6123-1.5306-1.3776-1.6072-.9184-.0765-1.7603 0-2.6787 0-.2296 1.6838-.6888 2.3726-2.1429 3.2144v3.5206h6.1992Zm-10.4851-10.332c0 .0765.0765.153.0765.153.7654 1.148 2.296 1.7603 3.5971 1.4542 1.4541-.3827 2.5256-1.5307 2.6021-2.9848.0766-1.0715.0766-2.2195 0-3.291 0-.3826-.153-.8418-.153-1.2245-1.7603.8419-3.3675.3061-5.0512 0v2.296c0 .2296.0765.3827.153.5357.5358 1.0715.1531 2.3726-.9949 2.8318-.0765.153-.1531.2296-.2296.2296Zm-.6888-9.9494c.2296.5358.4592 1.0715.6888 1.6072.0765.2296.1531.3062.3061.4592.2296.2296.4592.4592.6888.7654.0766.0765.2296.2296.3062.3061.5357.1531.9949.3061 1.5306.3061.7654.0766 1.4542.0766 2.2195 0 .2296 0 .3827-.3061.5357-.4592.1531-.153.3062-.3826.4592-.3826.1531 0 .3827.153.5358.3061.2296.3061.3826.6123.5357.9949v-1.6072c0-.0765-.1531-.2296-.2296-.3061-.3827-.0765-.5357-.3061-.5357-.6888-.0766-.9949-.8419-1.7603-1.8368-1.7603h-3.9032c-.5358-.0765-.995.1531-1.3011.4592Zm-16.9904 3.7502c.1531-.2296.3062-.4592.3827-.6888.3061-.4592.4592-.5358.9949-.3827.7654.2296 1.5307.3827 2.296.6123.7654.153 1.6072.3061 2.4491.153-.0765-1.301.0765-2.5256.9949-3.444-.3826-.3061-.7653-.4592-1.2245-.4592h-3.8267c-1.148 0-1.9898.7654-2.0664 1.9134-.0765.6888 0 1.5306 0 2.296Zm14.0056 10.5616c-1.2245.3061-1.6072.3826-3.2144 0 .2296.9184-.3061 1.148-1.0714.9949.0765 1.5307 1.301 2.7552 2.8317 2.7552 1.5307-.0765 2.7552-1.3011 2.6787-2.6787-.3062-.0765-.6888-.0765-.8419-.2296-.3061-.153-.3061-.5357-.3827-.8418Zm-10.7912 1.3776c.3827-.3827.7654-.6888 1.148-.995.6123-.3826 1.2246-.4592 1.9899-.4592.1531 0 .3061-.0765.3061-.153.0766-.1531.0766-.3827.1531-.6888-.6888.0765-1.148-.0766-1.0715-.9184-.9949.3061-1.9133.3061-2.8317.0765-.0765.3061-.1531.6123-.3061.7653-.1531.1531-.5358.1531-.7654.2296-.0765.8419.5358 1.7603 1.3776 2.143Zm15.9189-3.1379c-.153.7653-.153.7653-.9949.9184-.0765.6888 0 .7653.6888.7653.8419 0 1.6072.2296 2.2195.8419.2296.1531.3826.3827.6122.6123.9184-.3827 1.6072-1.4542 1.4542-2.2195-.8419-.0765-.9184 0-.995-.9184-1.0714.3061-1.9898.2296-2.9848 0ZM43.2731 40.9359c.5358 0 .995-.4592.995-.995 0-.5357-.4592-.9949-.9184-.9949-.5358 0-.995.3827-.995.9184-.0765.6123.3827 1.0715.9184 1.0715Zm11.9392-5.3574c.5358 0 .995-.4592.995-.9949 0-.5357-.4592-.9184-.995-.9949-.5357 0-.9949.4592-.9949.9949.0765.6123.4592.9949.9949.9949Zm12.0157 5.3574c.5358 0 .995-.4592.995-.995 0-.5357-.3827-.9184-.9184-.9949-.5358 0-.995.3827-.995.9184-.0765.6123.3827 1.0715.9184 1.0715Zm-14.7709 18.521c.0766-.4592-.0765-.7653-.3826-.7653-.4592-.0765-.9184 0-1.4542 0 0 .3061-.0765.5357-.0765.7653h1.9133Zm7.3472-.7653h-1.148c-.5357 0-.7653.2296-.6122.7653h1.9133c-.0766-.3061-.0766-.5357-.1531-.7653Zm1.0715-1.148c0-.6888-.6888-.7653-.9184-1.2245-.2296.4592-.3827.7653-.6123 1.2245h1.5307Zm-9.7963 0c-.2296-.3827-.3826-.7653-.6122-1.148-.2296.2296-.3827.3827-.6123.5357-.2296.1531-.4592.3062-.3061.6123h1.5306Zm-.8418-3.444v-1.7603c-.4592.0766-.6888.3827-.6888.7654 0 .4592.2296.8418.6888.9949Zm9.9493-1.7603v1.7603c.4592-.0765.6888-.4592.6888-.8419.0765-.4592-.2296-.7653-.6888-.9184Zm-17.6027-1.0714c-.3826.153-.5357.4592-.5357.7653s.1531.5357.5357.6888v-1.4541Zm25.3325 1.4541c.3827-.1531.5358-.3827.5358-.7653 0-.3062-.1531-.5358-.5358-.6888v1.4541Z" fill="#fff"/><defs><filter id="a" x="0" y="0" width="110" height="110" filterUnits="userSpaceOnUse" color-interpolation-filters="sRGB"><feFlood flood-opacity="0" result="BackgroundImageFix"/><feColorMatrix in="SourceAlpha" values="0 0 0 0 0 0 0 0 0 0 0 0 0 0 0 0 0 0 127 0" result="hardAlpha"/><feOffset dy="4"/><feGaussianBlur stdDeviation="12.5"/><feComposite in2="hardAlpha" operator="out"/><feColorMatrix values="0 0 0 0 0.917647 0 0 0 0 0.364706 0 0 0 0 0.733333 0 0 0 0.25 0"/><feBlend in2="BackgroundImageFix" result="effect1_dropShadow_1525_19682"/><feBlend in="SourceGraphic" in2="effect1_dropShadow_1525_19682" result="shape"/></filter></defs></svg>