<svg width="110" height="110" fill="none" xmlns="http://www.w3.org/2000/svg"><g filter="url(#a)"><rect x="25" y="21" width="60" height="60" rx="15" fill="#CF51CE"/></g><g clip-path="url(#b)" fill="#fff"><path d="M38.5488 64.4544h17.099v1.8999c0 1.0489.851 1.8999 1.8999 1.8999h2.5332c.5541 0 1.0786-.2474 1.4348-.663.0099 0 .0198 0 .0297-.0099.4651.4354 1.0687.6729 1.702.6729h7.5995c1.0489 0 1.8999-.851 1.8999-1.8999 0-.3266-.089-.6531-.2573-.9302.8609-.5343 1.1479-1.6525.6333-2.5332.475-.2968.7917-.7916.8708-1.3457.0792-.5542-.0989-1.1182-.475-1.5239.5047-.5541.6333-1.3556.3266-2.0384-.3068-.6828-.9895-1.1281-1.7416-1.1281h-1.8999V37.2226c0-1.3952-1.1379-2.5331-2.5332-2.5331H38.5488c-1.3952 0-2.5332 1.1379-2.5332 2.5331v24.6986c0 1.3952 1.138 2.5332 2.5332 2.5332Zm21.5321 2.5332h-2.5332c-.3463 0-.6333-.287-.6333-.6333v-5.6997c0-.3463.287-.6333.6333-.6333h2.5332c.3463 0 .6333.287.6333.6333v5.6997c0 .3463-.287.6333-.6333.6333Zm12.6659-8.2329c0 .3464-.2869.6333-.6333.6333h-1.8999c-.3463 0-.6333.287-.6333.6333s.287.6333.6333.6333h1.8999c.3464 0 .6333.287.6333.6333s-.2869.6333-.6333.6333h-1.8999c-.3463 0-.6333.287-.6333.6333s.287.6333.6333.6333h1.2666c.3464 0 .6333.287.6333.6333s-.2869.6333-.6333.6333h-1.2666c-.3463 0-.6333.287-.6333.6333s.287.6333.6333.6333h.6333c.3464 0 .6333.2869.6333.6333 0 .3463-.2869.6333-.6333.6333h-7.5995c-.7026 0-1.2666-.5641-1.2666-1.2666v-5.3336c.7916-.4947 1.3853-1.2567 1.6822-2.1373.564-1.6921.851-3.4634.851-5.2445 0-.0891.0593-.1584.1385-.188.2177-.0396.7817-.1386 1.3161.9103.2968.6036.4453 1.2666.4354 1.9494v1.8108c0 .3464.2869.6333.6333.6333h5.0663c.3563 0 .6432.287.6432.6333Zm-5.0664-1.8999v-1.1775c.0099-.8708-.188-1.7416-.5739-2.5233-.6234-1.2171-1.5733-1.7811-2.6717-1.5832-.6927.1286-1.1874.7322-1.1874 1.4348 0 1.6426-.2672 3.2852-.7818 4.8486-.1979.5839-.5838 1.0786-1.0983 1.425-.3464-.3266-.8114-.5047-1.2864-.5146h-2.5332c-1.0489 0-1.8999.851-1.8999 1.8999v2.5332h-17.099c-.7026 0-1.2666-.564-1.2666-1.2666V41.0224H68.947v15.8324h-1.2666ZM38.5488 35.956h29.1316c.7026 0 1.2666.5641 1.2666 1.2666v2.5332H37.2822v-2.5332c0-.7025.564-1.2666 1.2666-1.2666Z"/><path fill-rule="evenodd" clip-rule="evenodd" d="M39.8155 37.856c0 .3463-.287.6333-.6333.6333-.3464 0-.6334-.287-.6334-.6333 0-.3464.287-.6333.6334-.6333.3463 0 .6333.2869.6333.6333ZM42.3487 37.856c0 .3463-.287.6333-.6333.6333-.3464 0-.6334-.287-.6334-.6333 0-.3464.287-.6333.6334-.6333.3463 0 .6333.2869.6333.6333ZM44.8819 37.856c0 .3463-.287.6333-.6333.6333-.3464 0-.6334-.287-.6334-.6333 0-.3464.287-.6333.6334-.6333.3463 0 .6333.2869.6333.6333Z"/><path d="M41.0816 54.3219H51.215c1.0489 0 1.9-.8511 1.9-1.9v-7.6c0-1.049-.8511-1.9-1.9-1.9H41.0816c-1.0489 0-1.9.851-1.9 1.9v7.6c0 1.0489.8511 1.9 1.9 1.9Zm1.5537-1.2667 2.9292-4.6114 1.4052 1.7614-1.8011 2.85h-2.5333Zm8.5797 0h-4.5422l3.3349-5.2448 1.8406 2.3057v2.3157c0 .3364-.287.6234-.6333.6234Zm-10.7667-8.2333c0-.3464.287-.6334.6333-.6334H51.215c.3463 0 .6333.287.6333.6334v3.2656l-1.4052-1.7615c-.1286-.1583-.3266-.2474-.5245-.2375-.2078.0099-.3859.1188-.5047.2969l-1.7119 2.6917-1.6922-2.1177c-.1287-.1584-.3266-.2474-.5245-.2375-.2078.0099-.386.1187-.5047.2969l-3.8396 6.0364h-.0594c-.3463 0-.6333-.287-.6333-.6333v-7.6Z"/><path fill-rule="evenodd" clip-rule="evenodd" d="M42.9815 46.0884c0 .3464-.287.6333-.6333.6333-.3464 0-.6334-.2869-.6334-.6333 0-.3463.287-.6333.6334-.6333.3463 0 .6333.287.6333.6333ZM66.4137 43.5547H55.647c-.3463 0-.6333.287-.6333.6333 0 .3464.287.6334.6333.6334h10.7667c.3463 0 .6333-.287.6333-.6334 0-.3463-.287-.6333-.6333-.6333ZM66.4137 46.0889H55.647c-.3463 0-.6333.2869-.6333.6333s.287.6333.6333.6333h10.7667c.3463 0 .6333-.2869.6333-.6333s-.287-.6333-.6333-.6333ZM66.4137 48.6211H55.647c-.3463 0-.6333.287-.6333.6333 0 .3464.287.6334.6333.6334h10.7667c.3463 0 .6333-.287.6333-.6334 0-.3463-.287-.6333-.6333-.6333ZM61.347 51.1553h-5.7c-.3463 0-.6333.287-.6333.6333 0 .3464.287.6333.6333.6333h5.7c.3464 0 .6333-.2869.6333-.6333 0-.3463-.2869-.6333-.6333-.6333ZM54.3816 56.8545H39.815c-.3464 0-.6334.287-.6334.6333 0 .3464.287.6334.6334.6334h14.5666c.3464 0 .6334-.287.6334-.6334 0-.3463-.287-.6333-.6334-.6333ZM52.4816 59.3867H39.815c-.3464 0-.6334.287-.6334.6334 0 .3463.287.6333.6334.6333h12.6666c.3464 0 .6334-.287.6334-.6333 0-.3464-.287-.6334-.6334-.6334Z"/></g><defs><clipPath id="b"><path fill="#fff" transform="translate(36.0156 32.3135)" d="M0 0h37.9978v37.9978H0z"/></clipPath><filter id="a" x="0" y="0" width="110" height="110" filterUnits="userSpaceOnUse" color-interpolation-filters="sRGB"><feFlood flood-opacity="0" result="BackgroundImageFix"/><feColorMatrix in="SourceAlpha" values="0 0 0 0 0 0 0 0 0 0 0 0 0 0 0 0 0 0 127 0" result="hardAlpha"/><feOffset dy="4"/><feGaussianBlur stdDeviation="12.5"/><feComposite in2="hardAlpha" operator="out"/><feColorMatrix values="0 0 0 0 0.917647 0 0 0 0 0.364706 0 0 0 0 0.733333 0 0 0 0.25 0"/><feBlend in2="BackgroundImageFix" result="effect1_dropShadow_1525_19661"/><feBlend in="SourceGraphic" in2="effect1_dropShadow_1525_19661" result="shape"/></filter></defs></svg>