<svg width="110" height="110" fill="none" xmlns="http://www.w3.org/2000/svg"><g filter="url(#a)"><rect x="25" y="21" width="60" height="60" rx="15" fill="#CF51CE"/></g><g clip-path="url(#b)" fill="#fff"><path d="M63.6098 43.5188c-1.0687 1.0687-2.1375 2.1374-3.2656 3.2656 1.3062 1.7219 1.7812 3.6812 1.3062 5.8187-.4156 1.6625-1.3656 3.0282-2.7906 3.9782-2.7906 1.9593-6.5312 1.5437-8.8469-.95-2.375-2.5532-2.4937-6.2938-.2375-8.9657 2.0188-2.4343 5.9375-3.6219 9.4407-1.0687 1.0687-1.0688 2.1375-2.1375 3.2062-3.2656-1.9-1.6032-4.0969-2.5532-6.7094-2.7313v2.0781c0 .5938-.2968.95-.7718.95-.475 0-.7719-.3562-.7719-.95V36.5719c-1.4844.0593-2.9094.3562-4.275.8906-4.75 1.9-7.7781 5.3438-9.025 10.3312 0 .1188-.0594.1782-.0594.2969-.1187.4157-.475.6531-.8906.5938-.4156-.1188-.6531-.475-.5938-.95.4157-2.1375 1.2469-4.0969 2.4938-5.8188 2.9687-3.9781 6.8281-6.2937 11.7562-6.7687.1782 0 .4157-.0594.6532-.0594v-2.0187c0-.7126.2375-1.0688.7718-1.0688.475 0 .7719.3563.7719 1.0094V38.1156c2.9688.2375 5.5813 1.3063 7.7781 3.2063.3563-.3563.6532-.7125 1.0688-1.1281-.7719-.5344-1.4844-1.1282-2.3156-1.6032-1.3063-.7718-2.6719-1.3656-4.1563-1.6625-.1187 0-.2375-.0593-.2969-.0593-.4156-.1188-.6531-.5344-.5343-.95.1187-.4157.475-.6532.95-.5344 1.9.3562 3.6218 1.0687 5.225 2.1375.7718.5344 1.4843 1.0687 2.375 1.7219.0593-.2376.2375-.4157.2375-.5938v-2.4344c0-.2968.1187-.6531.3562-.8312.95-1.0094 1.9594-2.0188 2.9688-3.0281.2968-.2969.5937-.4157.95-.2376.3562.1188.475.4751.475.8313v2.3156h2.3156c.4156 0 .7125.1188.8906.475.1188.4156 0 .7125-.2969.95-1.0093.95-1.9593 1.9594-2.9093 2.9094-.2375.2375-.5938.3562-.8907.3562-.7718.0594-1.6031 0-2.375 0-.1781 0-.4156.1782-.6531.2376 1.3063 1.4843 2.2563 2.9687 2.9688 4.6906.7125 1.7219 1.0687 3.4437 1.1875 5.3437h2.0781c.5937 0 .95.2969.95.7719 0 .475-.3563.7719-.95.7719H68.1223c-.3562 1.3062-.5344 2.6125-1.0094 3.8-1.5437 3.9781-4.3937 6.5906-8.4906 7.8375-.1187 0-.1781.0594-.2969.0594-.475.1187-.8312-.1188-.95-.5344-.1187-.4157.1188-.7719.5938-.95.2969-.1188.5937-.1782.8312-.2969 4.5125-1.7219 7.0657-5.0469 7.6-9.7969v-.1781h-2.0187c-.5938 0-.95-.2969-.95-.7719 0-.475.3562-.7718.95-.7718h5.1062c-.2375-3.3844-1.425-6.3532-3.6218-8.8469-.3563.3562-.7125.7125-1.0688 1.0687.0594.0594.1188.1782.2375.2969 1.1281 1.3656 1.9594 2.9094 2.4344 4.6312.2375.7125.0594 1.1282-.4156 1.3063-.475.1187-.8313-.1781-1.0094-.8313-.5938-1.5437-1.3656-2.9687-2.4344-4.2749Zm-5.5219 3.2656c-1.7812-1.4844-4.8687-1.6032-6.9468.5343-2.0188 2.1375-2.0188 5.2844.0593 7.3625 2.0782 2.0782 5.2844 2.1376 7.3625.1188 2.1375-2.0188 2.1375-5.1062.5938-7.0063l-.8313.8313c-.2375.1781-.1781.3563-.0593.5938.4156.8312.5937 1.6625.3562 2.5531-.475 2.0781-2.6125 3.3843-4.6312 2.85-2.0782-.5344-3.325-2.7313-2.7313-4.75.6531-2.0782 2.85-3.325 4.8094-2.4938.8312.3563 1.3062.1188 1.7219-.475.1781 0 .2375-.0593.2968-.1187Zm-1.0687 3.2062c-.5344.5344-1.0094 1.0688-1.4844 1.5438-.2969.2969-.7125.2969-1.0094 0-.2968-.2969-.3562-.6531-.1187-1.0094.1187-.1188.2375-.2375.3562-.3562l1.2469-1.2469c-1.1281-.475-2.2562-.1188-2.85.7719-.5937.8906-.475 2.0781.2969 2.8499.7719.7719 1.9.8907 2.85.2969.8312-.5937 1.1875-1.7219.7125-2.85Zm10.5687-11.5781h1.8407c.1187 0 .2968 0 .3562-.0594.475-.475 1.0094-1.0093 1.6031-1.6031h-1.3062c-.5344 0-.8313-.2969-.8313-.8312v-1.3657c-.5937.5938-1.0687 1.0688-1.5437 1.5438-.0594.0593-.1188.1781-.1188.2969-.0593.7125 0 1.3062 0 2.0187Z"/><path d="M38.9695 51.7717h-2.0781c-.5937 0-.95-.2968-.95-.7718 0-.475.3563-.7125.8906-.7719h5.1063c.2375-1.0094.3562-1.9594.6531-2.9094.2375-.7719.5938-1.5437.8906-2.2562.2375-.475.6532-.6532 1.0688-.4157.4156.2375.5344.6532.2375 1.1282-.7125 1.425-1.1875 2.9093-1.2469 4.5125h1.9c.7125 0 1.0688.2375 1.1281.7718 0 .5344-.3562.7719-1.1281.7719h-4.9281c.0594 1.2469.2375 2.4344.6531 3.5625 1.7813 5.1656 5.2844 8.4313 10.5688 9.7375.1781.0594.4156.1188.5937.2375.2969.2375.4156.5344.2375.8906-.1781.3563-.475.5344-.8906.475-1.8406-.4156-3.6219-1.0687-5.225-2.0781-4.275-2.9687-6.7688-7.0062-7.3625-12.2312 0-.1782-.0594-.3563-.0594-.5344 0 0 0-.0594-.0594-.1188Z"/><path d="M55.7727 66.9723v2.0781c0 .5937-.2969.95-.7719.95-.475 0-.7719-.3563-.7719-.95v-5.1063c-.7719-.1187-1.4844-.2375-2.1969-.4156-4.8093-1.2469-7.9562-4.2156-9.4406-8.9656-.0594-.1781-.1187-.2969-.1187-.475 0-.4156.1781-.6531.5343-.7719.3563-.1187.7125 0 .8907.3563.0593.1781.1187.3562.1781.5343 1.3062 4.5125 5.5219 7.9563 10.1531 8.1344v-2.0187c0-.5938.2969-.95.7125-.95.475 0 .7719.3562.7719.95v5.1656c.95-.1781 1.9-.2969 2.7906-.475 1.6031-.3563 3.0281-1.0094 4.3938-1.9.1187-.0594.2375-.1781.3562-.2375.3563-.1188.6531-.0594.8906.2375.2375.2969.1782.6531-.0593.8906-.1188.1188-.2969.2375-.475.3563-2.3157 1.4843-4.8688 2.3156-7.6 2.5531 0 0-.1188.0594-.2375.0594ZM67.9437 59.9654c-.7718 0-1.0687-.5937-.7718-1.2469.5343-1.0687 1.0687-2.1968 1.5437-3.325.1781-.475.2969-1.0093.4156-1.4843.1188-.475.475-.7125.8907-.6532.4156.1188.6531.475.5937 1.0094-.3562 1.9-1.0687 3.6219-2.1375 5.225-.1781.2375-.4156.4156-.5344.475ZM48.1727 41.6777c-.1781-.1781-.475-.3562-.5938-.6531-.1781-.3562.0594-.6531.3563-.8906 1.1281-.7125 2.375-1.3063 3.6812-1.6031.4157-.1188.7125 0 .8907.3562.2375.4156.0593.95-.4157 1.1281-1.2468.3563-2.375.8313-3.4437 1.5438-.0594 0-.1781 0-.475.1187ZM46.8066 42.8061c0 .4156-.3562.7125-.7718.7125-.4157 0-.7125-.3563-.7125-.7719s.3562-.7125.7718-.7125c.3563 0 .7125.3562.7125.7719ZM66.6375 61.5689c0 .4157-.3563.7719-.7719.7719s-.7718-.2969-.7718-.7125.2968-.7719.7124-.7719c.475 0 .8313.2969.8313.7125Z"/></g><defs><clipPath id="b"><path fill="#fff" transform="translate(36 32)" d="M0 0h38v38H0z"/></clipPath><filter id="a" x="0" y="0" width="110" height="110" filterUnits="userSpaceOnUse" color-interpolation-filters="sRGB"><feFlood flood-opacity="0" result="BackgroundImageFix"/><feColorMatrix in="SourceAlpha" values="0 0 0 0 0 0 0 0 0 0 0 0 0 0 0 0 0 0 127 0" result="hardAlpha"/><feOffset dy="4"/><feGaussianBlur stdDeviation="12.5"/><feComposite in2="hardAlpha" operator="out"/><feColorMatrix values="0 0 0 0 0.917647 0 0 0 0 0.364706 0 0 0 0 0.733333 0 0 0 0.25 0"/><feBlend in2="BackgroundImageFix" result="effect1_dropShadow_1525_19647"/><feBlend in="SourceGraphic" in2="effect1_dropShadow_1525_19647" result="shape"/></filter></defs></svg>