<svg width="110" height="110" fill="none" xmlns="http://www.w3.org/2000/svg"><g filter="url(#a)"><rect x="25" y="21" width="60" height="60" rx="15" fill="#CF51CE"/></g><g clip-path="url(#b)" fill="#fff"><path d="M54.5523 70.258c-.7047-.1626-1.3551-.3794-1.7888-.9757-.271-.3794-.4878-.8672-.7046-1.3009-.1084-.2168-.1626-.3252-.3795-.3794-1.4093-.271-2.8186-.7589-4.1195-1.4094-2.0598-1.0298-3.8486-2.4392-5.3122-4.2279-.1626-.2169-.3252-.2169-.542-.1627-1.3551.4879-2.8187-.1084-3.5233-1.3551-.7047-1.3009-.4337-2.8729.7588-3.7401.2169-.1627.2711-.3253.1627-.5963-.9757-3.1981-.9757-6.4504 0-9.6485.0542-.2168.0542-.3794-.1627-.5421-1.1925-.8672-1.5177-2.4392-.813-3.7401.7046-1.3009 2.1682-1.843 3.5775-1.3551.271.1084.3794 0 .542-.1627 1.4636-1.7887 3.2524-3.1981 5.3122-4.228 1.2467-.6504 2.6018-1.0841 3.9569-1.3551.3253-.0542.5421-.1626.6505-.5962.2168-1.301 1.4635-2.1682 2.8187-2.1682 1.3551 0 2.5476.9756 2.8186 2.2766.0542.3252.2168.4336.4879.4878 2.2224.4337 4.228 1.3009 6.0709 2.6019 1.2468.8672 2.3309 1.8429 3.2523 2.9812.1627.2169.3253.2711.5963.1627 1.3009-.4879 2.8187.1084 3.5233 1.3009.7047 1.3009.4337 2.8728-.7046 3.7401-.2169.1626-.2711.3253-.2169.5963.9757 3.1981.9757 6.4504 0 9.6485-.0542.2168-.0542.3794.1627.542 1.0841.8131 1.4635 2.3309.9214 3.5776-.5962 1.3009-2.0055 2.0598-3.3065 1.6803-.5962-.1626-.8672 0-1.2467.4337-2.385 2.7102-5.4205 4.4448-8.9438 5.2037-.3253.0542-.5421.2168-.5963.5962-.3252 1.1383-1.0841 1.7888-2.1682 2.114-.1084 0-.1626.0542-.271.0542-.3252-.0542-.5421-.0542-.8131-.0542Zm.3794-27.2651c-4.5532 0-8.2933 3.7401-8.2933 8.2933 0 4.5533 3.7401 8.2934 8.2933 8.2934 4.5533 0 8.2934-3.7401 8.2934-8.2934 0-4.5532-3.7401-8.2933-8.2934-8.2933Zm-2.8186-6.8299c-3.7402.7047-6.7757 2.5477-9.1607 5.4747.6505.8131.8673 1.6804.6505 2.6561 0 .1084.1084.2168.1626.271.7047.3794 1.4093.7589 2.114 1.1383.3252.1626.6505.3795.9757.5421 1.9514-2.8729 4.6074-4.4449 8.0765-4.4449 3.4692 0 6.071 1.6262 8.0224 4.4449.9215-.4879 1.7888-.9757 2.6561-1.4636.4336-.2168.7046-.4336.5962-1.0299-.1626-.813.1626-1.5177.7047-2.1682-2.385-2.927-5.4205-4.77-9.1607-5.4747-.3794 1.1383-1.1383 1.7888-2.2766 2.0598v2.385h-1.1925v-2.385c-1.0299-.271-1.7888-.9215-2.1682-2.0056Zm-9.1607 24.7718c2.4392 2.927 5.4205 4.77 9.1607 5.4747.3794-1.0841 1.1383-1.7888 2.2766-2.0598v-2.385h1.1925v2.385c1.1383.271 1.843.9757 2.2224 2.0598 3.7402-.7589 6.7757-2.5477 9.1607-5.4747-.7047-1.0841-.7589-1.4094-.6505-2.6561 0-.1084-.0542-.2168-.1084-.271-1.0299-.5963-2.114-1.1383-3.1981-1.7346-1.9514 2.8729-4.6074 4.4448-8.0766 4.4448-3.4691 0-6.1251-1.6261-8.0765-4.4448-1.0841.5963-2.114 1.1383-3.1439 1.7346-.0542.0542-.1626.1626-.1084.271.2168 1.0299-.0542 1.8972-.6505 2.6561Zm3.3607-5.6916c-1.1383-2.656-1.1383-5.3121 0-7.9681-1.1383-.5963-2.2224-1.2468-3.3607-1.843-.7589.8131-1.6261 1.1383-2.7102 1.0299-.9757 3.1981-.9757 6.342 0 9.5401 1.0841-.1084 1.9513.271 2.7102 1.0299 1.1383-.5421 2.2224-1.1383 3.3607-1.7888Zm20.598 1.843c.7046-.7047 1.5177-1.1383 2.5476-1.0841.0542 0 .2168-.1626.271-.2168.5421-1.7346.7589-3.4692.6505-5.3121-.0542-1.3552-.271-2.6561-.7589-3.957-1.0299.1084-1.8971-.2168-2.6018-.9215-.0542-.0542-.2168-.0542-.3252 0-.4879.271-.9757.5421-1.4094.7589-.542.3252-1.1383.5962-1.6803.9215 1.1383 2.656 1.1383 5.3121 0 7.9681 1.0841.6505 2.1682 1.2467 3.3065 1.843ZM54.9317 37.0303c.9757 0 1.7888-.8131 1.7888-1.7346 0-.9757-.7589-1.7887-1.7345-1.7887-.9757 0-1.7888.813-1.7888 1.7887-.0542.9215.7589 1.7346 1.7345 1.7346Zm-12.4671 6.5588c0-.9757-.8131-1.7888-1.7888-1.7888-.9757 0-1.7888.8131-1.7888 1.7888 0 .9757.8131 1.7346 1.7888 1.7346 1.0299 0 1.7888-.8131 1.7888-1.7346Zm28.4577 0c0-.9757-.8131-1.7888-1.7346-1.7888-.9757 0-1.7888.7589-1.7888 1.7346 0 .9757.8131 1.7888 1.7888 1.7888.9215.0542 1.7346-.7589 1.7346-1.7346ZM42.4646 58.9834c0-.9757-.8131-1.7888-1.7888-1.7888-.9757 0-1.7888.8131-1.7888 1.7888 0 .9757.8131 1.7887 1.7888 1.7887 1.0299 0 1.7888-.813 1.7888-1.7887Zm28.4577 0c0-.9757-.8131-1.7888-1.7346-1.7888-.9757 0-1.7888.7589-1.7888 1.7346 0 .9757.8131 1.7887 1.7888 1.7887.9215.0542 1.7346-.7588 1.7346-1.7345Zm-15.9906 6.5588c-.9756 0-1.7887.8131-1.7887 1.7346 0 .9756.8131 1.7887 1.7887 1.7887.9757 0 1.7888-.8131 1.7888-1.7887 0-.9757-.8131-1.7346-1.7888-1.7346Z"/><path d="M53.035 50.5809c-1.1384-1.0299-1.301-2.2767-.9757-3.6319.3252-1.4095 1.7346-2.331 3.0898-2.2226 1.5721.1626 2.602 1.3552 2.7104 2.9273.0542 1.0841-.1626 2.0599-1.0841 2.873.1626.1084.3252.271.4878.3795.8674.542 1.7889 1.0841 2.6563 1.572.2168.1084.3252.271.271.5421v1.572c.0542.7047-.3253 1.1926-.9215 1.4094-.5963.2169-1.2468.3795-1.8431.4337-1.9515.1626-3.9572.2168-5.9087-.1084-.3253-.0542-.6505-.1626-.9758-.2711-.6505-.271-1.0299-.7589-.9757-1.4636v-1.6262c0-.2169.0542-.3253.2168-.4337.9215-.5421 1.7889-1.0842 2.7104-1.6262.2168-.0543.3795-.1627.5421-.3253Zm1.572 4.8788c1.0842-.0543 1.8431-.0543 2.602-.1085.4879-.0542 1.03-.1626 1.5179-.271.271-.0542.3252-.2168.3252-.4879.1626-.8673-.1626-1.4636-1.0299-1.7889-.1085-.0542-.2169-.1084-.2711-.1626-.6505-.4336-1.301-.9215-1.9515-1.3552-.0542-.0542-.2168-.0542-.3252-.0542h-1.2468c-.1084 0-.2711 0-.3253.0542-.7047.7589-1.6262 1.1926-2.4935 1.6805-.5421.3252-.8132.6505-.7048 1.301.0543.7589.0543.7589.759.9757h.1084c1.1926.0542 2.2767.1626 3.0356.2169Zm-1.4636-7.4808v.4879c.0542.9215.8131 1.572 1.6805 1.6262.8673.0542 1.6804-.542 1.7888-1.4094.0543-.4879.0543-.9757-.0542-1.4094-.271-1.0842-1.572-1.6262-2.5478-1.0842-.5962.3795-.8673 1.03-.8673 1.7889ZM55.529 35.8376h-1.1384v-1.1384h1.1384v1.1384ZM41.2712 44.1296h-1.1384v-1.1384h1.1384v1.1384ZM69.7302 42.9912v1.1384h-1.1384v-1.1384h1.1384ZM41.2712 59.5788h-1.1384v-1.1384h1.1384v1.1384ZM69.7302 58.4404v1.1384h-1.1384v-1.1384h1.1384ZM55.529 66.7344v1.1383h-1.1384v-1.1383h1.1384Z"/></g><defs><clipPath id="b"><path fill="#fff" transform="translate(35.9785 32.3135)" d="M0 0h37.9978v37.9978H0z"/></clipPath><filter id="a" x="0" y="0" width="110" height="110" filterUnits="userSpaceOnUse" color-interpolation-filters="sRGB"><feFlood flood-opacity="0" result="BackgroundImageFix"/><feColorMatrix in="SourceAlpha" values="0 0 0 0 0 0 0 0 0 0 0 0 0 0 0 0 0 0 127 0" result="hardAlpha"/><feOffset dy="4"/><feGaussianBlur stdDeviation="12.5"/><feComposite in2="hardAlpha" operator="out"/><feColorMatrix values="0 0 0 0 0.917647 0 0 0 0 0.364706 0 0 0 0 0.733333 0 0 0 0.25 0"/><feBlend in2="BackgroundImageFix" result="effect1_dropShadow_1525_19690"/><feBlend in="SourceGraphic" in2="effect1_dropShadow_1525_19690" result="shape"/></filter></defs></svg>