<svg width="20" height="20" viewBox="0 0 20 20" fill="none" xmlns="http://www.w3.org/2000/svg">
<path d="M1.57108 13.1979C1.06255 13.3909 0.802403 13.9623 1.0444 14.4494C1.90764 16.187 3.26156 17.6428 4.94814 18.6301C6.91915 19.7839 9.2257 20.2282 11.4843 19.8892C13.7428 19.5502 15.8173 18.4484 17.3628 16.7668C18.9082 15.0852 19.8315 12.9253 19.9791 10.6462C20.1267 8.36715 19.4897 6.1062 18.174 4.23936C16.8584 2.37251 14.9434 1.01227 12.7474 0.384805C10.5514 -0.242657 8.20678 -0.099526 6.10343 0.790398C4.3036 1.55191 2.77321 2.82097 1.69308 4.43265C1.39028 4.88446 1.57455 5.4847 2.05395 5.74162C2.53335 5.99853 3.12554 5.81377 3.43917 5.3694C4.29907 4.15104 5.4856 3.19048 6.87091 2.60435C8.55998 1.88971 10.4428 1.77477 12.2062 2.27865C13.9697 2.78252 15.5075 3.87485 16.5641 5.37399C17.6206 6.87314 18.1321 8.68876 18.0136 10.519C17.8951 12.3491 17.1536 14.0836 15.9126 15.434C14.6715 16.7843 13.0056 17.6692 11.1919 17.9414C9.37821 18.2136 7.52596 17.8568 5.94318 16.9303C4.64503 16.1704 3.5923 15.0648 2.89672 13.7457C2.64302 13.2646 2.07961 13.005 1.57108 13.1979Z" fill="white"/>
<path d="M1.25 9.21739C0.817777 9.21739 0.467391 9.56778 0.467391 10C0.467391 10.4322 0.817777 10.7826 1.25 10.7826L1.25 9.21739ZM14.3034 10.5534C14.609 10.2478 14.609 9.75224 14.3034 9.44661L9.3229 4.46612C9.01727 4.16049 8.52175 4.16049 8.21612 4.46612C7.91049 4.77175 7.91049 5.26727 8.21612 5.5729L12.6432 10L8.21612 14.4271C7.91049 14.7327 7.91049 15.2283 8.21612 15.5339C8.52175 15.8395 9.01727 15.8395 9.3229 15.5339L14.3034 10.5534ZM1.25 10.7826L13.75 10.7826V9.21739L1.25 9.21739L1.25 10.7826Z" fill="white"/>
</svg>
