<svg width="44" height="27" fill="none" xmlns="http://www.w3.org/2000/svg"><mask id="b" style="mask-type:alpha" maskUnits="userSpaceOnUse" x="4" y="0" width="36" height="19"><ellipse cx="21.548" cy="9.567" rx="17.548" ry="8.872" fill="url(#a)"/></mask><g mask="url(#b)"><g filter="url(#c)"><ellipse cx="21.548" cy="9.567" rx="17.548" ry="8.872" fill="url(#d)"/></g><g filter="url(#e)"><path d="M27.128 12.03V2.168c0-.15.009-.315.026-.492.036-.177.07-.36.106-.546l-16.11 10.9h15.978Zm14.912 0v.692c0 .097-.062.177-.184.24-.106.052-.281.079-.527.079H29.34v5.403h-2.21v-5.403H9.518c-.264 0-.465-.027-.606-.08a.577.577 0 0 1-.29-.24l-.236-.625L27.102-.414h2.237V12.03h12.7Z" fill="#fff"/></g></g><defs><linearGradient id="a" x1="44.361" y1="-4.628" x2="34.344" y2="25.233" gradientUnits="userSpaceOnUse"><stop stop-color="#F0A"/><stop offset="1" stop-color="#8912DE"/></linearGradient><linearGradient id="d" x1="44.361" y1="-4.628" x2="34.344" y2="25.233" gradientUnits="userSpaceOnUse"><stop stop-color="#F0A"/><stop offset="1" stop-color="#8912DE"/></linearGradient><filter id="c" x="0" y=".695" width="43.096" height="25.744" filterUnits="userSpaceOnUse" color-interpolation-filters="sRGB"><feFlood flood-opacity="0" result="BackgroundImageFix"/><feColorMatrix in="SourceAlpha" values="0 0 0 0 0 0 0 0 0 0 0 0 0 0 0 0 0 0 127 0" result="hardAlpha"/><feOffset dy="4"/><feGaussianBlur stdDeviation="2"/><feComposite in2="hardAlpha" operator="out"/><feColorMatrix values="0 0 0 0 0 0 0 0 0 0 0 0 0 0 0 0 0 0 0.25 0"/><feBlend in2="BackgroundImageFix" result="effect1_dropShadow_2605_2"/><feBlend in="SourceGraphic" in2="effect1_dropShadow_2605_2" result="shape"/></filter><filter id="e" x="4.387" y="-.413" width="41.652" height="26.857" filterUnits="userSpaceOnUse" color-interpolation-filters="sRGB"><feFlood flood-opacity="0" result="BackgroundImageFix"/><feColorMatrix in="SourceAlpha" values="0 0 0 0 0 0 0 0 0 0 0 0 0 0 0 0 0 0 127 0" result="hardAlpha"/><feOffset dy="4"/><feGaussianBlur stdDeviation="2"/><feComposite in2="hardAlpha" operator="out"/><feColorMatrix values="0 0 0 0 0 0 0 0 0 0 0 0 0 0 0 0 0 0 0.25 0"/><feBlend in2="BackgroundImageFix" result="effect1_dropShadow_2605_2"/><feBlend in="SourceGraphic" in2="effect1_dropShadow_2605_2" result="shape"/></filter></defs></svg>