<svg display="none" xmlns="http://www.w3.org/2000/svg">
    <symbol id="advantages__icon-target" viewBox="0 0 110 110">
        <g filter="url(#filter0_d_1525_19647)">
            <rect x="25" y="21" width="60" height="60" rx="15" fill="#CF51CE"/>
        </g>
        <g clip-path="url(#clip0_1525_19647)">
            <path d="M63.6098 43.5188C62.5411 44.5875 61.4723 45.6562 60.3442 46.7844C61.6504 48.5063 62.1254 50.4656 61.6504 52.6031C61.2348 54.2656 60.2848 55.6313 58.8598 56.5813C56.0692 58.5406 52.3286 58.125 50.0129 55.6313C47.6379 53.0781 47.5192 49.3375 49.7754 46.6656C51.7942 44.2313 55.7129 43.0437 59.2161 45.5969C60.2848 44.5281 61.3536 43.4594 62.4223 42.3313C60.5223 40.7281 58.3254 39.7781 55.7129 39.6C55.7129 40.3125 55.7129 40.9656 55.7129 41.6781C55.7129 42.2719 55.4161 42.6281 54.9411 42.6281C54.4661 42.6281 54.1692 42.2719 54.1692 41.6781C54.1692 40.1344 54.1692 38.65 54.1692 37.1063C54.1692 36.9281 54.1692 36.75 54.1692 36.5719C52.6848 36.6312 51.2598 36.9281 49.8942 37.4625C45.1442 39.3625 42.1161 42.8063 40.8692 47.7937C40.8692 47.9125 40.8098 47.9719 40.8098 48.0906C40.6911 48.5063 40.3348 48.7437 39.9192 48.6844C39.5036 48.5656 39.2661 48.2094 39.3254 47.7344C39.7411 45.5969 40.5723 43.6375 41.8192 41.9156C44.7879 37.9375 48.6473 35.6219 53.5754 35.1469C53.7536 35.1469 53.9911 35.0875 54.2286 35.0875C54.2286 34.4344 54.2286 33.7219 54.2286 33.0688C54.2286 32.3562 54.4661 32 55.0004 32C55.4754 32 55.7723 32.3563 55.7723 33.0094C55.7723 34.5531 55.7723 36.0375 55.7723 37.5812C55.7723 37.7594 55.7723 37.9375 55.7723 38.1156C58.7411 38.3531 61.3536 39.4219 63.5504 41.3219C63.9067 40.9656 64.2036 40.6094 64.6192 40.1938C63.8473 39.6594 63.1348 39.0656 62.3036 38.5906C60.9973 37.8188 59.6317 37.225 58.1473 36.9281C58.0286 36.9281 57.9098 36.8688 57.8504 36.8688C57.4348 36.75 57.1973 36.3344 57.3161 35.9188C57.4348 35.5031 57.7911 35.2656 58.2661 35.3844C60.1661 35.7406 61.8879 36.4531 63.4911 37.5219C64.2629 38.0563 64.9754 38.5906 65.8661 39.2438C65.9254 39.0062 66.1036 38.8281 66.1036 38.65C66.1036 37.8187 66.1036 37.0469 66.1036 36.2156C66.1036 35.9188 66.2223 35.5625 66.4598 35.3844C67.4098 34.375 68.4192 33.3656 69.4286 32.3563C69.7254 32.0594 70.0223 31.9406 70.3786 32.1187C70.7348 32.2375 70.8536 32.5938 70.8536 32.95C70.8536 33.7219 70.8536 34.4344 70.8536 35.2656C71.6254 35.2656 72.3973 35.2656 73.1692 35.2656C73.5848 35.2656 73.8817 35.3844 74.0598 35.7406C74.1786 36.1562 74.0598 36.4531 73.7629 36.6906C72.7536 37.6406 71.8036 38.65 70.8536 39.6C70.6161 39.8375 70.2598 39.9562 69.9629 39.9562C69.1911 40.0156 68.3598 39.9562 67.5879 39.9562C67.4098 39.9562 67.1723 40.1344 66.9348 40.1938C68.2411 41.6781 69.1911 43.1625 69.9036 44.8844C70.6161 46.6063 70.9723 48.3281 71.0911 50.2281C71.8036 50.2281 72.5161 50.2281 73.1692 50.2281C73.7629 50.2281 74.1192 50.525 74.1192 51C74.1192 51.475 73.7629 51.7719 73.1692 51.7719C71.6254 51.7719 70.0817 51.7719 68.5379 51.7719C68.3598 51.7719 68.1817 51.7719 68.1223 51.7719C67.7661 53.0781 67.5879 54.3844 67.1129 55.5719C65.5692 59.55 62.7192 62.1625 58.6223 63.4094C58.5036 63.4094 58.4442 63.4688 58.3254 63.4688C57.8504 63.5875 57.4942 63.35 57.3754 62.9344C57.2567 62.5187 57.4942 62.1625 57.9692 61.9844C58.2661 61.8656 58.5629 61.8062 58.8004 61.6875C63.3129 59.9656 65.8661 56.6406 66.4004 51.8906C66.4004 51.8312 66.4004 51.8313 66.4004 51.7125C65.7473 51.7125 65.0348 51.7125 64.3817 51.7125C63.7879 51.7125 63.4317 51.4156 63.4317 50.9406C63.4317 50.4656 63.7879 50.1688 64.3817 50.1688C65.9254 50.1688 67.4098 50.1688 68.9536 50.1688C69.1317 50.1688 69.3098 50.1688 69.4879 50.1688C69.2504 46.7844 68.0629 43.8156 65.8661 41.3219C65.5098 41.6781 65.1536 42.0344 64.7973 42.3906C64.8567 42.45 64.9161 42.5688 65.0348 42.6875C66.1629 44.0531 66.9942 45.5969 67.4692 47.3187C67.7067 48.0312 67.5286 48.4469 67.0536 48.625C66.5786 48.7437 66.2223 48.4469 66.0442 47.7937C65.4504 46.25 64.6786 44.825 63.6098 43.5188ZM58.0879 46.7844C56.3067 45.3 53.2192 45.1812 51.1411 47.3187C49.1223 49.4562 49.1223 52.6031 51.2004 54.6812C53.2786 56.7594 56.4848 56.8188 58.5629 54.8C60.7004 52.7812 60.7004 49.6938 59.1567 47.7937C58.8598 48.0906 58.6223 48.3281 58.3254 48.625C58.0879 48.8031 58.1473 48.9813 58.2661 49.2188C58.6817 50.05 58.8598 50.8813 58.6223 51.7719C58.1473 53.85 56.0098 55.1562 53.9911 54.6219C51.9129 54.0875 50.6661 51.8906 51.2598 49.8719C51.9129 47.7937 54.1098 46.5469 56.0692 47.3781C56.9004 47.7344 57.3754 47.4969 57.7911 46.9031C57.9692 46.9031 58.0286 46.8438 58.0879 46.7844ZM57.0192 49.9906C56.4848 50.525 56.0098 51.0594 55.5348 51.5344C55.2379 51.8313 54.8223 51.8313 54.5254 51.5344C54.2286 51.2375 54.1692 50.8813 54.4067 50.525C54.5254 50.4062 54.6442 50.2875 54.7629 50.1688C55.1786 49.7531 55.5942 49.3375 56.0098 48.9219C54.8817 48.4469 53.7536 48.8031 53.1598 49.6938C52.5661 50.5844 52.6848 51.7719 53.4567 52.5437C54.2286 53.3156 55.3567 53.4344 56.3067 52.8406C57.1379 52.2469 57.4942 51.1187 57.0192 49.9906ZM67.5879 38.4125C68.2411 38.4125 68.8348 38.4125 69.4286 38.4125C69.5473 38.4125 69.7254 38.4125 69.7848 38.3531C70.2598 37.8781 70.7942 37.3438 71.3879 36.75C70.8536 36.75 70.4379 36.75 70.0817 36.75C69.5473 36.75 69.2504 36.4531 69.2504 35.9188C69.2504 35.5031 69.2504 35.0875 69.2504 34.5531C68.6567 35.1469 68.1817 35.6219 67.7067 36.0969C67.6473 36.1562 67.5879 36.275 67.5879 36.3938C67.5286 37.1063 67.5879 37.7 67.5879 38.4125Z" fill="white"/>
            <path d="M38.9695 51.7717C38.3164 51.7717 37.6039 51.7717 36.8914 51.7717C36.2977 51.7717 35.9414 51.4749 35.9414 50.9999C35.9414 50.5249 36.2977 50.2874 36.832 50.228C38.5539 50.228 40.2164 50.228 41.9383 50.228C42.1758 49.2186 42.2945 48.2686 42.5914 47.3186C42.8289 46.5467 43.1852 45.7749 43.482 45.0624C43.7195 44.5874 44.1352 44.4092 44.5508 44.6467C44.9664 44.8842 45.0852 45.2999 44.7883 45.7749C44.0758 47.1999 43.6008 48.6842 43.5414 50.2874C44.1945 50.2874 44.7883 50.2874 45.4414 50.2874C46.1539 50.2874 46.5102 50.5249 46.5695 51.0592C46.5695 51.5936 46.2133 51.8311 45.4414 51.8311C43.957 51.8311 42.532 51.8311 41.0477 51.8311C40.8695 51.8311 40.6914 51.8311 40.5133 51.8311C40.5727 53.078 40.7508 54.2655 41.1664 55.3936C42.9477 60.5592 46.4508 63.8249 51.7352 65.1311C51.9133 65.1905 52.1508 65.2499 52.3289 65.3686C52.6258 65.6061 52.7445 65.903 52.5664 66.2592C52.3883 66.6155 52.0914 66.7936 51.6758 66.7342C49.8352 66.3186 48.0539 65.6655 46.4508 64.6561C42.1758 61.6874 39.682 57.6499 39.0883 52.4249C39.0883 52.2467 39.0289 52.0686 39.0289 51.8905C39.0289 51.8905 39.0289 51.8311 38.9695 51.7717Z" fill="white"/>
            <path d="M55.7727 66.9723C55.7727 67.6848 55.7727 68.3379 55.7727 69.0504C55.7727 69.6441 55.4758 70.0004 55.0008 70.0004C54.5258 70.0004 54.2289 69.6441 54.2289 69.0504C54.2289 67.5066 54.2289 65.9629 54.2289 64.4191C54.2289 64.241 54.2289 64.0629 54.2289 63.9441C53.457 63.8254 52.7445 63.7066 52.032 63.5285C47.2227 62.2816 44.0758 59.3129 42.5914 54.5629C42.532 54.3848 42.4727 54.266 42.4727 54.0879C42.4727 53.6723 42.6508 53.4348 43.007 53.316C43.3633 53.1973 43.7195 53.316 43.8977 53.6723C43.957 53.8504 44.0164 54.0285 44.0758 54.2066C45.382 58.7191 49.5977 62.1629 54.2289 62.341C54.2289 61.6879 54.2289 60.9754 54.2289 60.3223C54.2289 59.7285 54.5258 59.3723 54.9414 59.3723C55.4164 59.3723 55.7133 59.7285 55.7133 60.3223C55.7133 61.8066 55.7133 63.3504 55.7133 64.8348C55.7133 65.0129 55.7133 65.191 55.7133 65.4879C56.6633 65.3098 57.6133 65.191 58.5039 65.0129C60.107 64.6566 61.532 64.0035 62.8977 63.1129C63.0164 63.0535 63.1352 62.9348 63.2539 62.8754C63.6102 62.7566 63.907 62.816 64.1445 63.1129C64.382 63.4098 64.3227 63.766 64.0852 64.0035C63.9664 64.1223 63.7883 64.241 63.6102 64.3598C61.2945 65.8441 58.7414 66.6754 56.0102 66.9129C56.0102 66.9129 55.8914 66.9723 55.7727 66.9723Z" fill="white"/>
            <path d="M67.9437 59.9654C67.1719 59.9654 66.875 59.3717 67.1719 58.7185C67.7062 57.6498 68.2406 56.5217 68.7156 55.3935C68.8937 54.9185 69.0125 54.3842 69.1312 53.9092C69.25 53.4342 69.6062 53.1967 70.0219 53.256C70.4375 53.3748 70.675 53.731 70.6156 54.2654C70.2594 56.1654 69.5469 57.8873 68.4781 59.4904C68.3 59.7279 68.0625 59.906 67.9437 59.9654Z" fill="white"/>
            <path d="M48.1727 41.6777C47.9946 41.4996 47.6977 41.3215 47.5789 41.0246C47.4008 40.6684 47.6383 40.3715 47.9352 40.134C49.0633 39.4215 50.3102 38.8277 51.6164 38.5309C52.0321 38.4121 52.3289 38.5309 52.5071 38.8871C52.7446 39.3027 52.5664 39.8371 52.0914 40.0152C50.8446 40.3715 49.7164 40.8465 48.6477 41.559C48.5883 41.559 48.4696 41.559 48.1727 41.6777Z" fill="white"/>
            <path d="M46.8066 42.8061C46.8066 43.2217 46.4504 43.5186 46.0348 43.5186C45.6191 43.5186 45.3223 43.1623 45.3223 42.7467C45.3223 42.3311 45.6785 42.0342 46.0941 42.0342C46.4504 42.0342 46.8066 42.3904 46.8066 42.8061Z" fill="white"/>
            <path d="M66.6375 61.5689C66.6375 61.9846 66.2812 62.3408 65.8656 62.3408C65.45 62.3408 65.0938 62.0439 65.0938 61.6283C65.0938 61.2127 65.3906 60.8564 65.8062 60.8564C66.2812 60.8564 66.6375 61.1533 66.6375 61.5689Z" fill="white"/>
        </g>
        <defs>
            <filter id="filter0_d_1525_19647" x="0" y="0" width="110" height="110" filterUnits="userSpaceOnUse" color-interpolation-filters="sRGB">
                <feFlood flood-opacity="0" result="BackgroundImageFix"/>
                <feColorMatrix in="SourceAlpha" type="matrix" values="0 0 0 0 0 0 0 0 0 0 0 0 0 0 0 0 0 0 127 0" result="hardAlpha"/>
                <feOffset dy="4"/>
                <feGaussianBlur stdDeviation="12.5"/>
                <feComposite in2="hardAlpha" operator="out"/>
                <feColorMatrix type="matrix" values="0 0 0 0 0.917647 0 0 0 0 0.364706 0 0 0 0 0.733333 0 0 0 0.25 0"/>
                <feBlend mode="normal" in2="BackgroundImageFix" result="effect1_dropShadow_1525_19647"/>
                <feBlend mode="normal" in="SourceGraphic" in2="effect1_dropShadow_1525_19647" result="shape"/>
            </filter>
            <clipPath id="clip0_1525_19647">
                <rect width="38" height="38" fill="white" transform="translate(36 32)"/>
            </clipPath>
        </defs>
    </symbol>
    <symbol id="advantages__icon-data" viewBox="0 0 110 110">
        <g filter="url(#filter0_d_1525_19661)">
            <rect x="25" y="21" width="60" height="60" rx="15" fill="#CF51CE"/>
        </g>
        <g clip-path="url(#clip0_1525_19661)">
            <path d="M38.5488 64.4544H55.6478V66.3543C55.6478 67.4032 56.4988 68.2542 57.5477 68.2542H60.0809C60.635 68.2542 61.1595 68.0068 61.5157 67.5912C61.5256 67.5912 61.5355 67.5912 61.5454 67.5813C62.0105 68.0167 62.6141 68.2542 63.2474 68.2542H70.8469C71.8958 68.2542 72.7468 67.4032 72.7468 66.3543C72.7468 66.0277 72.6578 65.7012 72.4895 65.4241C73.3504 64.8898 73.6374 63.7716 73.1228 62.8909C73.5978 62.5941 73.9145 62.0993 73.9936 61.5452C74.0728 60.991 73.8947 60.427 73.5186 60.0213C74.0233 59.4672 74.1519 58.6657 73.8452 57.9829C73.5384 57.3001 72.8557 56.8548 72.1036 56.8548H70.2037V37.2226C70.2037 35.8274 69.0658 34.6895 67.6705 34.6895H38.5488C37.1536 34.6895 36.0156 35.8274 36.0156 37.2226V61.9212C36.0156 63.3164 37.1536 64.4544 38.5488 64.4544ZM60.0809 66.9876H57.5477C57.2014 66.9876 56.9144 66.7006 56.9144 66.3543V60.6546C56.9144 60.3083 57.2014 60.0213 57.5477 60.0213H60.0809C60.4272 60.0213 60.7142 60.3083 60.7142 60.6546V66.3543C60.7142 66.7006 60.4272 66.9876 60.0809 66.9876ZM72.7468 58.7547C72.7468 59.1011 72.4599 59.388 72.1135 59.388H70.2136C69.8673 59.388 69.5803 59.675 69.5803 60.0213C69.5803 60.3676 69.8673 60.6546 70.2136 60.6546H72.1135C72.4599 60.6546 72.7468 60.9416 72.7468 61.2879C72.7468 61.6342 72.4599 61.9212 72.1135 61.9212H70.2136C69.8673 61.9212 69.5803 62.2082 69.5803 62.5545C69.5803 62.9008 69.8673 63.1878 70.2136 63.1878H71.4802C71.8266 63.1878 72.1135 63.4748 72.1135 63.8211C72.1135 64.1674 71.8266 64.4544 71.4802 64.4544H70.2136C69.8673 64.4544 69.5803 64.7414 69.5803 65.0877C69.5803 65.434 69.8673 65.721 70.2136 65.721H70.8469C71.1933 65.721 71.4802 66.0079 71.4802 66.3543C71.4802 66.7006 71.1933 66.9876 70.8469 66.9876H63.2474C62.5448 66.9876 61.9808 66.4235 61.9808 65.721V60.3874C62.7724 59.8927 63.3661 59.1307 63.663 58.2501C64.227 56.558 64.514 54.7867 64.514 53.0056C64.514 52.9165 64.5733 52.8472 64.6525 52.8176C64.8702 52.778 65.4342 52.679 65.9686 53.7279C66.2654 54.3315 66.4139 54.9945 66.404 55.6773V57.4881C66.404 57.8345 66.6909 58.1214 67.0373 58.1214H72.1036C72.4599 58.1214 72.7468 58.4084 72.7468 58.7547ZM67.6804 56.8548V55.6773C67.6903 54.8065 67.4924 53.9357 67.1065 53.154C66.4831 51.9369 65.5332 51.3729 64.4348 51.5708C63.7421 51.6994 63.2474 52.303 63.2474 53.0056C63.2474 54.6482 62.9802 56.2908 62.4656 57.8542C62.2677 58.4381 61.8818 58.9328 61.3673 59.2792C61.0209 58.9526 60.5559 58.7745 60.0809 58.7646H57.5477C56.4988 58.7646 55.6478 59.6156 55.6478 60.6645V63.1977H38.5488C37.8462 63.1977 37.2822 62.6337 37.2822 61.9311V41.0224H68.947V56.8548H67.6804ZM38.5488 35.956H67.6804C68.383 35.956 68.947 36.5201 68.947 37.2226V39.7558H37.2822V37.2226C37.2822 36.5201 37.8462 35.956 38.5488 35.956Z" fill="white"/>
            <path fill-rule="evenodd" clip-rule="evenodd" d="M39.8155 37.856C39.8155 38.2023 39.5285 38.4893 39.1822 38.4893C38.8358 38.4893 38.5488 38.2023 38.5488 37.856C38.5488 37.5096 38.8358 37.2227 39.1822 37.2227C39.5285 37.2227 39.8155 37.5096 39.8155 37.856Z" fill="white"/>
            <path fill-rule="evenodd" clip-rule="evenodd" d="M42.3487 37.856C42.3487 38.2023 42.0617 38.4893 41.7154 38.4893C41.369 38.4893 41.082 38.2023 41.082 37.856C41.082 37.5096 41.369 37.2227 41.7154 37.2227C42.0617 37.2227 42.3487 37.5096 42.3487 37.856Z" fill="white"/>
            <path fill-rule="evenodd" clip-rule="evenodd" d="M44.8819 37.856C44.8819 38.2023 44.5949 38.4893 44.2486 38.4893C43.9022 38.4893 43.6152 38.2023 43.6152 37.856C43.6152 37.5096 43.9022 37.2227 44.2486 37.2227C44.5949 37.2227 44.8819 37.5096 44.8819 37.856Z" fill="white"/>
            <path d="M41.0816 54.3219H51.215C52.2639 54.3219 53.115 53.4708 53.115 52.4219V44.8219C53.115 43.7729 52.2639 42.9219 51.215 42.9219H41.0816C40.0327 42.9219 39.1816 43.7729 39.1816 44.8219V52.4219C39.1816 53.4708 40.0327 54.3219 41.0816 54.3219ZM42.6353 53.0552L45.5645 48.4438L46.9697 50.2052L45.1686 53.0552H42.6353ZM51.215 53.0552H46.6728L50.0077 47.8104L51.8483 50.1161V52.4318C51.8483 52.7682 51.5613 53.0552 51.215 53.0552ZM40.4483 44.8219C40.4483 44.4755 40.7353 44.1885 41.0816 44.1885H51.215C51.5613 44.1885 51.8483 44.4755 51.8483 44.8219V48.0875L50.4431 46.326C50.3145 46.1677 50.1165 46.0786 49.9186 46.0885C49.7108 46.0984 49.5327 46.2073 49.4139 46.3854L47.702 49.0771L46.0098 46.9594C45.8811 46.801 45.6832 46.712 45.4853 46.7219C45.2775 46.7318 45.0993 46.8406 44.9806 47.0188L41.141 53.0552H41.0816C40.7353 53.0552 40.4483 52.7682 40.4483 52.4219V44.8219Z" fill="white"/>
            <path fill-rule="evenodd" clip-rule="evenodd" d="M42.9815 46.0884C42.9815 46.4348 42.6945 46.7217 42.3482 46.7217C42.0018 46.7217 41.7148 46.4348 41.7148 46.0884C41.7148 45.7421 42.0018 45.4551 42.3482 45.4551C42.6945 45.4551 42.9815 45.7421 42.9815 46.0884Z" fill="white"/>
            <path fill-rule="evenodd" clip-rule="evenodd" d="M66.4137 43.5547H55.647C55.3007 43.5547 55.0137 43.8417 55.0137 44.188C55.0137 44.5344 55.3007 44.8214 55.647 44.8214H66.4137C66.76 44.8214 67.047 44.5344 67.047 44.188C67.047 43.8417 66.76 43.5547 66.4137 43.5547Z" fill="white"/>
            <path fill-rule="evenodd" clip-rule="evenodd" d="M66.4137 46.0889H55.647C55.3007 46.0889 55.0137 46.3758 55.0137 46.7222C55.0137 47.0686 55.3007 47.3555 55.647 47.3555H66.4137C66.76 47.3555 67.047 47.0686 67.047 46.7222C67.047 46.3758 66.76 46.0889 66.4137 46.0889Z" fill="white"/>
            <path fill-rule="evenodd" clip-rule="evenodd" d="M66.4137 48.6211H55.647C55.3007 48.6211 55.0137 48.9081 55.0137 49.2544C55.0137 49.6008 55.3007 49.8878 55.647 49.8878H66.4137C66.76 49.8878 67.047 49.6008 67.047 49.2544C67.047 48.9081 66.76 48.6211 66.4137 48.6211Z" fill="white"/>
            <path fill-rule="evenodd" clip-rule="evenodd" d="M61.347 51.1553H55.647C55.3007 51.1553 55.0137 51.4423 55.0137 51.7886C55.0137 52.135 55.3007 52.4219 55.647 52.4219H61.347C61.6934 52.4219 61.9803 52.135 61.9803 51.7886C61.9803 51.4423 61.6934 51.1553 61.347 51.1553Z" fill="white"/>
            <path fill-rule="evenodd" clip-rule="evenodd" d="M54.3816 56.8545H39.815C39.4686 56.8545 39.1816 57.1415 39.1816 57.4878C39.1816 57.8342 39.4686 58.1212 39.815 58.1212H54.3816C54.728 58.1212 55.015 57.8342 55.015 57.4878C55.015 57.1415 54.728 56.8545 54.3816 56.8545Z" fill="white"/>
            <path fill-rule="evenodd" clip-rule="evenodd" d="M52.4816 59.3867H39.815C39.4686 59.3867 39.1816 59.6737 39.1816 60.0201C39.1816 60.3664 39.4686 60.6534 39.815 60.6534H52.4816C52.828 60.6534 53.115 60.3664 53.115 60.0201C53.115 59.6737 52.828 59.3867 52.4816 59.3867Z" fill="white"/>
        </g>
        <defs>
            <filter id="filter0_d_1525_19661" x="0" y="0" width="110" height="110" filterUnits="userSpaceOnUse" color-interpolation-filters="sRGB">
                <feFlood flood-opacity="0" result="BackgroundImageFix"/>
                <feColorMatrix in="SourceAlpha" type="matrix" values="0 0 0 0 0 0 0 0 0 0 0 0 0 0 0 0 0 0 127 0" result="hardAlpha"/>
                <feOffset dy="4"/>
                <feGaussianBlur stdDeviation="12.5"/>
                <feComposite in2="hardAlpha" operator="out"/>
                <feColorMatrix type="matrix" values="0 0 0 0 0.917647 0 0 0 0 0.364706 0 0 0 0 0.733333 0 0 0 0.25 0"/>
                <feBlend mode="normal" in2="BackgroundImageFix" result="effect1_dropShadow_1525_19661"/>
                <feBlend mode="normal" in="SourceGraphic" in2="effect1_dropShadow_1525_19661" result="shape"/>
            </filter>
            <clipPath id="clip0_1525_19661">
                <rect width="37.9978" height="37.9978" fill="white" transform="translate(36.0156 32.3135)"/>
            </clipPath>
        </defs>
    </symbol>
    <symbol id="advantages__icon-group" viewBox="0 0 110 110">
        <g filter="url(#filter0_d_1525_19682)">
            <rect x="25" y="21" width="60" height="60" rx="15" fill="#CF51CE"/>
        </g>
        <path d="M46.5641 69.3297C45.8753 69.0236 45.5691 68.5644 45.6457 67.7991C45.6457 67.4164 45.6457 66.9572 45.6457 66.5745C45.4926 66.5745 45.3395 66.5745 45.1865 66.5745C43.3497 66.5745 41.5894 66.5745 39.7526 66.5745C38.8342 66.5745 38.375 66.1153 38.375 65.1969C38.375 64.8143 38.375 64.4316 38.375 64.0489C38.375 63.6663 38.6046 63.4367 38.9107 63.4367C39.2169 63.4367 39.4465 63.6663 39.4465 64.0489C39.4465 64.4316 39.4465 64.8143 39.4465 65.1969C39.4465 65.35 39.523 65.4265 39.6761 65.4265C41.6659 65.4265 43.5793 65.4265 45.6457 65.4265C45.6457 64.202 45.6457 63.054 45.6457 61.906C44.1915 60.9876 43.7323 60.3753 43.5027 58.6916C42.5843 58.6916 41.6659 58.6151 40.8241 58.6916C40.0587 58.7681 39.523 59.61 39.4465 60.4519C39.4465 60.8345 39.4465 61.1407 39.4465 61.5233C39.4465 61.906 39.2169 62.1356 38.9107 62.1356C38.6046 62.1356 38.375 61.906 38.375 61.5233C38.375 61.1407 38.375 60.6815 38.375 60.2988C38.4515 59.3804 38.9107 58.6151 39.6761 58.0793C39.7526 58.0028 39.8291 58.0028 39.9057 57.9263C39.5995 56.9313 39.2169 56.0129 38.9873 55.0945C37.7627 50.1964 38.5281 45.6809 41.3598 41.4716C41.5129 41.242 41.5894 41.0889 41.4363 40.7828C41.0537 40.0175 41.2067 39.0991 41.819 38.4868C42.4313 37.8745 43.2731 37.6449 44.115 38.0276C44.2681 38.1807 44.4211 38.1041 44.5742 37.9511C45.4926 37.3388 46.3345 36.7265 47.2529 36.1143C47.6355 35.8847 47.9417 35.9612 48.0947 36.2673C48.2478 36.5735 48.0947 36.8031 47.7886 37.0327C46.9467 37.6449 46.1049 38.1807 45.263 38.7929C45.1099 38.8695 45.1099 39.0225 45.1865 39.1756C45.4926 39.9409 45.3395 40.7063 44.8038 41.242C44.2681 41.8543 43.5793 42.0839 42.7374 41.8543C42.5078 41.7777 42.4313 41.8543 42.2782 42.0073C40.7475 44.2268 39.8291 46.6759 39.5995 49.4311C39.2934 52.1863 39.7526 54.7884 40.8241 57.314C40.9006 57.5436 41.0537 57.6201 41.3598 57.6201C42.4313 57.6201 43.5027 57.6201 44.4977 57.6201C44.5742 57.314 44.4977 57.1609 44.3446 57.0079C43.4262 56.2425 42.8139 55.3241 42.6609 54.1761C42.6609 53.9465 42.5843 53.87 42.3547 53.7935C40.9771 53.4108 40.5179 51.7271 41.5129 50.6556C41.5894 50.5791 41.6659 50.3495 41.6659 50.1964C41.6659 49.0484 41.6659 47.9769 41.6659 46.8289C41.6659 45.1452 42.7374 43.9207 44.2681 43.6145C44.4977 43.538 44.8038 43.538 45.0334 43.538C46.1814 43.538 47.3294 43.538 48.4774 43.538C49.2427 43.538 50.0081 43.7676 50.6203 44.3033C50.6969 44.3799 50.8499 44.3799 50.9265 44.3799C51.6153 44.0737 52.3041 43.9972 53.0694 43.9972C53.4521 43.9972 53.7582 43.9972 54.1409 43.9972C54.447 43.9972 54.6766 44.2268 54.7531 44.5329C54.7531 44.8391 54.5235 45.0687 54.1409 45.0687C53.6051 45.0687 53.0694 45.0687 52.5337 45.0687C51.1561 45.0687 50.0081 46.1401 49.9315 47.5177C49.855 48.6657 49.9315 49.8137 49.9315 50.9617C49.9315 51.0383 49.9315 51.0383 49.9315 51.1148C50.2377 51.1913 50.2377 51.0383 50.3142 50.8087C50.4673 49.9668 50.7734 49.2015 51.2326 48.5127C51.5387 48.13 51.6918 48.0535 52.151 48.2065C53.6051 48.6657 54.9827 49.0484 56.5134 49.2015C56.8961 49.2015 57.3552 49.2015 57.7379 49.1249C57.9675 49.0484 58.2737 48.8953 58.4267 48.7423C58.7329 48.4361 59.1155 48.4361 59.3451 48.8188C59.7278 49.4311 60.0339 50.1199 60.1104 50.8087C60.1104 50.9617 60.187 51.1913 60.4166 51.1148C60.4166 51.0383 60.4166 50.9617 60.4166 50.8852C60.4166 50.1199 60.4166 49.3545 60.4166 48.5892C60.4166 48.2065 60.34 47.9769 59.8808 47.9769C59.5747 47.9004 59.4216 47.6708 59.4216 47.3647C59.4216 46.7524 59.1921 46.2932 58.8094 45.834C58.3502 45.2983 57.7379 45.0687 57.1257 45.0687C56.8961 45.0687 56.6665 45.0687 56.5134 45.0687C56.2073 45.0687 55.9777 44.8391 55.9777 44.5329C55.9777 44.2268 56.2073 43.9972 56.5134 43.9972C57.3553 43.9207 58.1971 44.0737 58.8859 44.4564C59.6512 43.6911 60.5696 43.4615 61.5646 43.538C62.7126 43.538 63.784 43.538 64.932 43.538C66.3862 43.538 67.5342 44.4564 67.9168 45.834C67.9168 45.9105 67.9934 46.0636 68.1464 46.1401C68.6056 46.4463 68.8352 46.9055 68.8352 47.4412C68.8352 48.2831 68.8352 49.2015 68.8352 50.0433C68.8352 50.1964 68.9118 50.426 69.0648 50.5025C70.0598 51.574 69.6006 53.1812 68.223 53.6404C67.9934 53.7169 67.9934 53.7935 67.9168 53.9465C67.6872 55.0945 67.1515 56.0895 66.2331 56.8548C66.08 56.9313 66.08 57.1609 65.927 57.314L66.0035 57.3905C66.5392 57.3905 66.9984 57.3905 67.5342 57.3905C68.0699 57.3905 68.6822 57.3905 69.2179 57.3905C69.524 57.3905 69.6006 57.314 69.7536 57.0844C70.8251 54.5588 71.2078 51.9567 70.9782 49.278C70.7486 46.5993 69.8302 44.1503 68.376 41.9308C68.223 41.7012 68.0699 41.6247 67.8403 41.7012C67.075 41.9308 66.3862 41.7012 65.8504 41.0889C65.3147 40.4767 65.1616 39.7879 65.4678 39.0225C65.3912 39.0225 65.3147 38.8695 65.1616 38.7164C62.9422 36.9561 60.4166 35.8081 57.5849 35.3489C57.2787 35.2724 57.1257 35.3489 56.9726 35.6551C56.2073 37.0327 54.2174 36.9561 53.4521 35.6551C53.299 35.4255 53.1459 35.3489 52.9163 35.4255C51.9979 35.6551 51.0795 35.8847 50.1611 36.1143C50.0081 36.1908 49.7019 36.1908 49.5489 36.1143C49.3958 36.0377 49.2427 35.8081 49.3193 35.6551C49.3958 35.502 49.5489 35.1959 49.7019 35.1959C50.6203 34.8897 51.4622 34.7367 52.3806 34.5071C52.4571 34.5071 52.4571 34.5071 52.5337 34.5071C52.9929 34.5071 53.2225 34.354 53.3755 33.8948C53.7582 32.9764 54.447 32.5938 55.3654 32.5938C56.2073 32.6703 56.8961 33.0529 57.2022 33.8948C57.3553 34.2009 57.5083 34.2775 57.8144 34.354C60.8758 34.8132 63.5544 35.9612 65.927 37.9511C66.1566 38.1041 66.3096 38.1807 66.6158 38.0276C67.3811 37.7215 68.2995 37.9511 68.8352 38.5633C69.371 39.1756 69.524 40.094 69.1414 40.8593C69.0648 41.0124 68.9883 41.1655 69.1414 41.3951C72.5854 46.5228 73.0446 51.9567 70.7486 57.6967C70.7486 57.7732 70.672 57.8497 70.672 57.9263C70.8251 58.0028 70.9016 58.0793 71.0547 58.2324C71.82 58.8447 72.2027 59.61 72.2027 60.6049C72.2027 62.1356 72.2027 63.7428 72.2027 65.2735C72.2027 66.1919 71.7435 66.6511 70.8251 66.6511C68.9883 66.6511 67.228 66.6511 65.3912 66.6511C65.2382 66.6511 65.0851 66.6511 64.932 66.6511C64.932 67.1103 64.932 67.4929 64.932 67.8756C65.0086 68.6409 64.7024 69.1001 64.0136 69.4062C58.1206 69.3297 52.3806 69.3297 46.5641 69.3297ZM59.1155 60.6049C58.8859 63.054 57.0491 64.3551 55.2889 64.3551C54.3705 64.3551 53.6051 64.1255 52.9163 63.5132C51.9214 62.7479 51.4622 61.7529 51.3857 60.5284C50.5438 60.5284 49.7785 60.5284 48.9366 60.5284C47.559 60.5284 46.7171 61.3703 46.7171 62.7479C46.7171 64.4316 46.7171 66.1153 46.7171 67.7991C46.7171 68.1052 46.7937 68.2583 47.1763 68.2583C50.3142 68.2583 53.4521 68.2583 56.5899 68.2583C58.8859 68.2583 61.1819 68.2583 63.4779 68.2583C63.631 68.2583 63.8606 68.3348 63.8606 68.0287C63.8606 66.1919 63.8606 64.4316 63.8606 62.5948C63.8606 61.5999 63.0187 60.6815 62.1003 60.6815C61.0288 60.5284 60.1104 60.6049 59.1155 60.6049ZM58.8859 50.1199C56.4369 50.9617 54.2939 50.0433 52.0745 49.5076C51.9979 49.5841 51.9214 49.6607 51.9214 49.8137C51.5387 50.3495 51.3857 50.9617 51.3857 51.574C51.3857 52.8751 51.3091 54.1761 51.4622 55.4007C51.6918 57.3905 53.5286 58.8447 55.5185 58.6916C57.5083 58.5385 59.1155 56.9313 59.1155 54.9415C59.1155 53.7935 59.1155 52.6455 59.1155 51.4975C59.1155 51.0383 58.9624 50.5791 58.8859 50.1199ZM43.9619 48.9719C43.8854 49.4311 43.7323 49.8137 43.6558 50.1964C43.5793 51.3444 43.5793 52.5689 43.6558 53.7169C43.8089 55.7833 45.6457 57.1609 47.6355 56.8548C48.6305 56.7017 49.4723 56.0895 50.0081 55.2476C49.9315 55.2476 49.855 55.1711 49.855 55.1711C48.5539 54.6353 48.0947 53.4108 48.7835 52.1863C48.7835 52.1097 48.8601 52.1097 48.8601 52.0332C48.8601 51.2679 48.8601 50.5791 48.8601 49.8137C47.1763 49.8137 45.6457 49.4311 43.9619 48.9719ZM70.9782 65.5031C70.9782 63.7428 70.9782 62.0591 70.9782 60.3753C70.9782 59.61 70.3659 58.8447 69.6006 58.7681C68.6822 58.6916 67.8403 58.7681 66.9219 58.7681C66.6923 60.4519 66.2331 61.1407 64.779 61.9825C64.779 63.2071 64.779 64.3551 64.779 65.5031C66.9219 65.5031 68.9118 65.5031 70.9782 65.5031ZM60.4931 55.1711C60.4931 55.2476 60.5696 55.3241 60.5696 55.3241C61.335 56.4721 62.8656 57.0844 64.1667 56.7783C65.6208 56.3956 66.6923 55.2476 66.7688 53.7935C66.8454 52.722 66.8454 51.574 66.7688 50.5025C66.7688 50.1199 66.6158 49.6607 66.6158 49.278C64.8555 50.1199 63.2483 49.5841 61.5646 49.278C61.5646 50.0433 61.5646 50.8087 61.5646 51.574C61.5646 51.8036 61.6411 51.9567 61.7176 52.1097C62.2534 53.1812 61.8707 54.4823 60.7227 54.9415C60.6462 55.0945 60.5696 55.1711 60.4931 55.1711ZM59.8043 45.2217C60.0339 45.7575 60.2635 46.2932 60.4931 46.8289C60.5696 47.0585 60.6462 47.1351 60.7992 47.2881C61.0288 47.5177 61.2584 47.7473 61.488 48.0535C61.5646 48.13 61.7176 48.2831 61.7942 48.3596C62.3299 48.5127 62.7891 48.6657 63.3248 48.6657C64.0902 48.7423 64.779 48.7423 65.5443 48.6657C65.7739 48.6657 65.927 48.3596 66.08 48.2065C66.2331 48.0535 66.3862 47.8239 66.5392 47.8239C66.6923 47.8239 66.9219 47.9769 67.075 48.13C67.3046 48.4361 67.4576 48.7423 67.6107 49.1249C67.6107 48.5127 67.6107 47.9769 67.6107 47.5177C67.6107 47.4412 67.4576 47.2881 67.3811 47.2116C66.9984 47.1351 66.8454 46.9055 66.8454 46.5228C66.7688 45.5279 66.0035 44.7625 65.0086 44.7625C63.7075 44.7625 62.4064 44.7625 61.1054 44.7625C60.5696 44.686 60.1104 44.9156 59.8043 45.2217ZM42.8139 48.9719C42.967 48.7423 43.1201 48.5127 43.1966 48.2831C43.5027 47.8239 43.6558 47.7473 44.1915 47.9004C44.9569 48.13 45.7222 48.2831 46.4875 48.5127C47.2529 48.6657 48.0947 48.8188 48.9366 48.6657C48.8601 47.3647 49.0131 46.1401 49.9315 45.2217C49.5489 44.9156 49.1662 44.7625 48.707 44.7625C47.4059 44.7625 46.1814 44.7625 44.8803 44.7625C43.7323 44.7625 42.8905 45.5279 42.8139 46.6759C42.7374 47.3647 42.8139 48.2065 42.8139 48.9719ZM56.8195 59.5335C55.595 59.8396 55.2123 59.9161 53.6051 59.5335C53.8347 60.4519 53.299 60.6815 52.5337 60.5284C52.6102 62.0591 53.8347 63.2836 55.3654 63.2836C56.8961 63.2071 58.1206 61.9825 58.0441 60.6049C57.7379 60.5284 57.3553 60.5284 57.2022 60.3753C56.8961 60.2223 56.8961 59.8396 56.8195 59.5335ZM46.0283 60.9111C46.411 60.5284 46.7937 60.2223 47.1763 59.9161C47.7886 59.5335 48.4009 59.4569 49.1662 59.4569C49.3193 59.4569 49.4723 59.3804 49.4723 59.3039C49.5489 59.1508 49.5489 58.9212 49.6254 58.6151C48.9366 58.6916 48.4774 58.5385 48.5539 57.6967C47.559 58.0028 46.6406 58.0028 45.7222 57.7732C45.6457 58.0793 45.5691 58.3855 45.4161 58.5385C45.263 58.6916 44.8803 58.6916 44.6507 58.7681C44.5742 59.61 45.1865 60.5284 46.0283 60.9111ZM61.9472 57.7732C61.7942 58.5385 61.7942 58.5385 60.9523 58.6916C60.8758 59.3804 60.9523 59.4569 61.6411 59.4569C62.483 59.4569 63.2483 59.6865 63.8606 60.2988C64.0902 60.4519 64.2432 60.6815 64.4728 60.9111C65.3912 60.5284 66.08 59.4569 65.927 58.6916C65.0851 58.6151 65.0086 58.6916 64.932 57.7732C63.8606 58.0793 62.9422 58.0028 61.9472 57.7732ZM43.2731 40.9359C43.8089 40.9359 44.2681 40.4767 44.2681 39.9409C44.2681 39.4052 43.8089 38.946 43.3497 38.946C42.8139 38.946 42.3547 39.3287 42.3547 39.8644C42.2782 40.4767 42.7374 40.9359 43.2731 40.9359ZM55.2123 35.5785C55.7481 35.5785 56.2073 35.1193 56.2073 34.5836C56.2073 34.0479 55.7481 33.6652 55.2123 33.5887C54.6766 33.5887 54.2174 34.0479 54.2174 34.5836C54.2939 35.1959 54.6766 35.5785 55.2123 35.5785ZM67.228 40.9359C67.7638 40.9359 68.223 40.4767 68.223 39.9409C68.223 39.4052 67.8403 39.0225 67.3046 38.946C66.7688 38.946 66.3096 39.3287 66.3096 39.8644C66.2331 40.4767 66.6923 40.9359 67.228 40.9359ZM52.4571 59.4569C52.5337 58.9977 52.3806 58.6916 52.0745 58.6916C51.6153 58.6151 51.1561 58.6916 50.6203 58.6916C50.6203 58.9977 50.5438 59.2273 50.5438 59.4569C51.2326 59.4569 51.8449 59.4569 52.4571 59.4569ZM59.8043 58.6916C59.4216 58.6916 59.039 58.6916 58.6563 58.6916C58.1206 58.6916 57.891 58.9212 58.0441 59.4569C58.6563 59.4569 59.2686 59.4569 59.9574 59.4569C59.8808 59.1508 59.8808 58.9212 59.8043 58.6916ZM60.8758 57.5436C60.8758 56.8548 60.187 56.7783 59.9574 56.3191C59.7278 56.7783 59.5747 57.0844 59.3451 57.5436C59.8808 57.5436 60.34 57.5436 60.8758 57.5436ZM51.0795 57.5436C50.8499 57.1609 50.6969 56.7783 50.4673 56.3956C50.2377 56.6252 50.0846 56.7783 49.855 56.9313C49.6254 57.0844 49.3958 57.2375 49.5489 57.5436C50.1611 57.5436 50.6203 57.5436 51.0795 57.5436ZM50.2377 54.0996C50.2377 53.4873 50.2377 52.9516 50.2377 52.3393C49.7785 52.4159 49.5489 52.722 49.5489 53.1047C49.5489 53.5639 49.7785 53.9465 50.2377 54.0996ZM60.187 52.3393C60.187 52.9516 60.187 53.4873 60.187 54.0996C60.6462 54.0231 60.8758 53.6404 60.8758 53.2577C60.9523 52.7985 60.6462 52.4924 60.187 52.3393ZM42.5843 51.2679C42.2017 51.4209 42.0486 51.7271 42.0486 52.0332C42.0486 52.3393 42.2017 52.5689 42.5843 52.722C42.5843 52.2628 42.5843 51.8036 42.5843 51.2679ZM67.9168 52.722C68.2995 52.5689 68.4526 52.3393 68.4526 51.9567C68.4526 51.6505 68.2995 51.4209 67.9168 51.2679C67.9168 51.8036 67.9168 52.2628 67.9168 52.722Z" fill="white"/>
        <defs>
            <filter id="filter0_d_1525_19682" x="0" y="0" width="110" height="110" filterUnits="userSpaceOnUse" color-interpolation-filters="sRGB">
                <feFlood flood-opacity="0" result="BackgroundImageFix"/>
                <feColorMatrix in="SourceAlpha" type="matrix" values="0 0 0 0 0 0 0 0 0 0 0 0 0 0 0 0 0 0 127 0" result="hardAlpha"/>
                <feOffset dy="4"/>
                <feGaussianBlur stdDeviation="12.5"/>
                <feComposite in2="hardAlpha" operator="out"/>
                <feColorMatrix type="matrix" values="0 0 0 0 0.917647 0 0 0 0 0.364706 0 0 0 0 0.733333 0 0 0 0.25 0"/>
                <feBlend mode="normal" in2="BackgroundImageFix" result="effect1_dropShadow_1525_19682"/>
                <feBlend mode="normal" in="SourceGraphic" in2="effect1_dropShadow_1525_19682" result="shape"/>
            </filter>
        </defs>
    </symbol>
    <symbol id="advantages__icon-creators" viewBox="0 0 110 110">
        <g filter="url(#filter0_d_1525_19690)">
            <rect x="25" y="21" width="60" height="60" rx="15" fill="#CF51CE"/>
        </g>
        <g clip-path="url(#clip0_1525_19690)">
            <path d="M54.5523 70.258C53.8476 70.0954 53.1972 69.8786 52.7635 69.2823C52.4925 68.9029 52.2757 68.4151 52.0589 67.9814C51.9505 67.7646 51.8963 67.6562 51.6794 67.602C50.2701 67.331 48.8608 66.8431 47.5599 66.1926C45.5001 65.1628 43.7113 63.7534 42.2477 61.9647C42.0851 61.7478 41.9225 61.7478 41.7057 61.802C40.3506 62.2899 38.887 61.6936 38.1824 60.4469C37.4777 59.146 37.7487 57.574 38.9412 56.7068C39.1581 56.5441 39.2123 56.3815 39.1039 56.1105C38.1282 52.9124 38.1282 49.6601 39.1039 46.462C39.1581 46.2452 39.1581 46.0826 38.9412 45.9199C37.7487 45.0527 37.4235 43.4807 38.1282 42.1798C38.8328 40.8789 40.2964 40.3368 41.7057 40.8247C41.9767 40.9331 42.0851 40.8247 42.2477 40.662C43.7113 38.8733 45.5001 37.4639 47.5599 36.434C48.8066 35.7836 50.1617 35.3499 51.5168 35.0789C51.8421 35.0247 52.0589 34.9163 52.1673 34.4827C52.3841 33.1817 53.6308 32.3145 54.986 32.3145C56.3411 32.3145 57.5336 33.2901 57.8046 34.5911C57.8588 34.9163 58.0214 35.0247 58.2925 35.0789C60.5149 35.5126 62.5205 36.3798 64.3634 37.6808C65.6102 38.548 66.6943 39.5237 67.6157 40.662C67.7784 40.8789 67.941 40.9331 68.212 40.8247C69.5129 40.3368 71.0307 40.9331 71.7353 42.1256C72.44 43.4265 72.169 44.9984 71.0307 45.8657C70.8138 46.0283 70.7596 46.191 70.8138 46.462C71.7895 49.6601 71.7895 52.9124 70.8138 56.1105C70.7596 56.3273 70.7596 56.4899 70.9765 56.6525C72.0606 57.4656 72.44 58.9834 71.8979 60.2301C71.3017 61.531 69.8924 62.2899 68.5914 61.9104C67.9952 61.7478 67.7242 61.9104 67.3447 62.3441C64.9597 65.0543 61.9242 66.7889 58.4009 67.5478C58.0756 67.602 57.8588 67.7646 57.8046 68.144C57.4794 69.2823 56.7205 69.9328 55.6364 70.258C55.528 70.258 55.4738 70.3122 55.3654 70.3122C55.0402 70.258 54.8233 70.258 54.5523 70.258ZM54.9317 42.9929C50.3785 42.9929 46.6384 46.733 46.6384 51.2862C46.6384 55.8395 50.3785 59.5796 54.9317 59.5796C59.485 59.5796 63.2251 55.8395 63.2251 51.2862C63.2251 46.733 59.485 42.9929 54.9317 42.9929ZM52.1131 36.163C48.3729 36.8677 45.3374 38.7107 42.9524 41.6377C43.6029 42.4508 43.8197 43.3181 43.6029 44.2938C43.6029 44.4022 43.7113 44.5106 43.7655 44.5648C44.4702 44.9442 45.1748 45.3237 45.8795 45.7031C46.2047 45.8657 46.53 46.0826 46.8552 46.2452C48.8066 43.3723 51.4626 41.8003 54.9317 41.8003C58.4009 41.8003 61.0027 43.4265 62.9541 46.2452C63.8756 45.7573 64.7429 45.2695 65.6102 44.7816C66.0438 44.5648 66.3148 44.348 66.2064 43.7517C66.0438 42.9387 66.369 42.234 66.9111 41.5835C64.5261 38.6565 61.4906 36.8135 57.7504 36.1088C57.371 37.2471 56.6121 37.8976 55.4738 38.1686C55.4738 38.9817 55.4738 39.7948 55.4738 40.5536C55.0944 40.5536 54.7149 40.5536 54.2813 40.5536C54.2813 39.7406 54.2813 38.9275 54.2813 38.1686C53.2514 37.8976 52.4925 37.2471 52.1131 36.163ZM42.9524 60.9348C45.3916 63.8618 48.3729 65.7048 52.1131 66.4095C52.4925 65.3254 53.2514 64.6207 54.3897 64.3497C54.3897 63.5366 54.3897 62.7235 54.3897 61.9647C54.8233 61.9647 55.1486 61.9647 55.5822 61.9647C55.5822 62.7777 55.5822 63.5908 55.5822 64.3497C56.7205 64.6207 57.4252 65.3254 57.8046 66.4095C61.5448 65.6506 64.5803 63.8618 66.9653 60.9348C66.2606 59.8507 66.2064 59.5254 66.3148 58.2787C66.3148 58.1703 66.2606 58.0619 66.2064 58.0077C65.1765 57.4114 64.0924 56.8694 63.0083 56.2731C61.0569 59.146 58.4009 60.7179 54.9317 60.7179C51.4626 60.7179 48.8066 59.0918 46.8552 56.2731C45.7711 56.8694 44.7412 57.4114 43.7113 58.0077C43.6571 58.0619 43.5487 58.1703 43.6029 58.2787C43.8197 59.3086 43.5487 60.1759 42.9524 60.9348ZM46.3131 55.2432C45.1748 52.5872 45.1748 49.9311 46.3131 47.2751C45.1748 46.6788 44.0907 46.0283 42.9524 45.4321C42.1935 46.2452 41.3263 46.5704 40.2422 46.462C39.2665 49.6601 39.2665 52.804 40.2422 56.0021C41.3263 55.8937 42.1935 56.2731 42.9524 57.032C44.0907 56.4899 45.1748 55.8937 46.3131 55.2432ZM66.9111 57.0862C67.6157 56.3815 68.4288 55.9479 69.4587 56.0021C69.5129 56.0021 69.6755 55.8395 69.7297 55.7853C70.2718 54.0507 70.4886 52.3161 70.3802 50.4732C70.326 49.118 70.1092 47.8171 69.6213 46.5162C68.5914 46.6246 67.7242 46.2994 67.0195 45.5947C66.9653 45.5405 66.8027 45.5405 66.6943 45.5947C66.2064 45.8657 65.7186 46.1368 65.2849 46.3536C64.7429 46.6788 64.1466 46.9498 63.6046 47.2751C64.7429 49.9311 64.7429 52.5872 63.6046 55.2432C64.6887 55.8937 65.7728 56.4899 66.9111 57.0862ZM54.9317 37.0303C55.9074 37.0303 56.7205 36.2172 56.7205 35.2957C56.7205 34.32 55.9616 33.507 54.986 33.507C54.0103 33.507 53.1972 34.32 53.1972 35.2957C53.143 36.2172 53.9561 37.0303 54.9317 37.0303ZM42.4646 43.5891C42.4646 42.6134 41.6515 41.8003 40.6758 41.8003C39.7001 41.8003 38.887 42.6134 38.887 43.5891C38.887 44.5648 39.7001 45.3237 40.6758 45.3237C41.7057 45.3237 42.4646 44.5106 42.4646 43.5891ZM70.9223 43.5891C70.9223 42.6134 70.1092 41.8003 69.1877 41.8003C68.212 41.8003 67.3989 42.5592 67.3989 43.5349C67.3989 44.5106 68.212 45.3237 69.1877 45.3237C70.1092 45.3779 70.9223 44.5648 70.9223 43.5891ZM42.4646 58.9834C42.4646 58.0077 41.6515 57.1946 40.6758 57.1946C39.7001 57.1946 38.887 58.0077 38.887 58.9834C38.887 59.9591 39.7001 60.7721 40.6758 60.7721C41.7057 60.7721 42.4646 59.9591 42.4646 58.9834ZM70.9223 58.9834C70.9223 58.0077 70.1092 57.1946 69.1877 57.1946C68.212 57.1946 67.3989 57.9535 67.3989 58.9292C67.3989 59.9049 68.212 60.7179 69.1877 60.7179C70.1092 60.7721 70.9223 59.9591 70.9223 58.9834ZM54.9317 65.5422C53.9561 65.5422 53.143 66.3553 53.143 67.2768C53.143 68.2524 53.9561 69.0655 54.9317 69.0655C55.9074 69.0655 56.7205 68.2524 56.7205 67.2768C56.7205 66.3011 55.9074 65.5422 54.9317 65.5422Z" fill="white"/>
            <path d="M53.035 50.5809C51.8966 49.551 51.734 48.3042 52.0593 46.949C52.3845 45.5395 53.7939 44.618 55.1491 44.7264C56.7212 44.889 57.7511 46.0816 57.8595 47.6537C57.9137 48.7378 57.6969 49.7136 56.7754 50.5267C56.938 50.6351 57.1006 50.7977 57.2632 50.9062C58.1306 51.4482 59.0521 51.9903 59.9195 52.4782C60.1363 52.5866 60.2447 52.7492 60.1905 53.0203C60.1905 53.5624 60.1905 54.1044 60.1905 54.5923C60.2447 55.297 59.8652 55.7849 59.269 56.0017C58.6727 56.2186 58.0222 56.3812 57.4259 56.4354C55.4744 56.598 53.4687 56.6522 51.5172 56.327C51.1919 56.2728 50.8667 56.1644 50.5414 56.0559C49.8909 55.7849 49.5115 55.297 49.5657 54.5923C49.5657 54.0502 49.5657 53.5082 49.5657 52.9661C49.5657 52.7492 49.6199 52.6408 49.7825 52.5324C50.704 51.9903 51.5714 51.4482 52.4929 50.9062C52.7097 50.8519 52.8724 50.7435 53.035 50.5809ZM54.607 55.4597C55.6912 55.4054 56.4501 55.4054 57.209 55.3512C57.6969 55.297 58.239 55.1886 58.7269 55.0802C58.9979 55.026 59.0521 54.8634 59.0521 54.5923C59.2147 53.725 58.8895 53.1287 58.0222 52.8034C57.9137 52.7492 57.8053 52.695 57.7511 52.6408C57.1006 52.2072 56.4501 51.7193 55.7996 51.2856C55.7454 51.2314 55.5828 51.2314 55.4744 51.2314C55.0407 51.2314 54.6612 51.2314 54.2276 51.2314C54.1192 51.2314 53.9565 51.2314 53.9023 51.2856C53.1976 52.0445 52.2761 52.4782 51.4088 52.9661C50.8667 53.2913 50.5956 53.6166 50.704 54.2671C50.7583 55.026 50.7583 55.026 51.463 55.2428C51.5172 55.2428 51.5172 55.2428 51.5714 55.2428C52.764 55.297 53.8481 55.4054 54.607 55.4597ZM53.1434 47.9789C53.1434 48.1415 53.1434 48.3042 53.1434 48.4668C53.1976 49.3883 53.9565 50.0388 54.8239 50.093C55.6912 50.1472 56.5043 49.551 56.6127 48.6836C56.667 48.1957 56.667 47.7079 56.5585 47.2742C56.2875 46.19 54.9865 45.648 54.0107 46.19C53.4145 46.5695 53.1434 47.22 53.1434 47.9789Z" fill="white"/>
            <path d="M55.529 35.8376C55.1495 35.8376 54.7701 35.8376 54.3906 35.8376C54.3906 35.4581 54.3906 35.0787 54.3906 34.6992C54.7701 34.6992 55.1495 34.6992 55.529 34.6992C55.529 35.0787 55.529 35.4581 55.529 35.8376Z" fill="white"/>
            <path d="M41.2712 44.1296C40.8917 44.1296 40.5123 44.1296 40.1328 44.1296C40.1328 43.7501 40.1328 43.3707 40.1328 42.9912C40.5123 42.9912 40.8917 42.9912 41.2712 42.9912C41.2712 43.3707 41.2712 43.7501 41.2712 44.1296Z" fill="white"/>
            <path d="M69.7302 42.9912C69.7302 43.3707 69.7302 43.7501 69.7302 44.1296C69.3507 44.1296 68.9713 44.1296 68.5918 44.1296C68.5918 43.7501 68.5918 43.3707 68.5918 42.9912C68.9713 42.9912 69.3507 42.9912 69.7302 42.9912Z" fill="white"/>
            <path d="M41.2712 59.5788C40.8917 59.5788 40.5123 59.5788 40.1328 59.5788C40.1328 59.1993 40.1328 58.8199 40.1328 58.4404C40.5123 58.4404 40.8917 58.4404 41.2712 58.4404C41.2712 58.8199 41.2712 59.1993 41.2712 59.5788Z" fill="white"/>
            <path d="M69.7302 58.4404C69.7302 58.8199 69.7302 59.1993 69.7302 59.5788C69.3507 59.5788 68.9713 59.5788 68.5918 59.5788C68.5918 59.1993 68.5918 58.8199 68.5918 58.4404C68.9713 58.4404 69.3507 58.4404 69.7302 58.4404Z" fill="white"/>
            <path d="M55.529 66.7344C55.529 67.1138 55.529 67.4933 55.529 67.8727C55.1495 67.8727 54.7701 67.8727 54.3906 67.8727C54.3906 67.4933 54.3906 67.1138 54.3906 66.7344C54.7701 66.7344 55.0953 66.7344 55.529 66.7344Z" fill="white"/>
        </g>
        <defs>
            <filter id="filter0_d_1525_19690" x="0" y="0" width="110" height="110" filterUnits="userSpaceOnUse" color-interpolation-filters="sRGB">
                <feFlood flood-opacity="0" result="BackgroundImageFix"/>
                <feColorMatrix in="SourceAlpha" type="matrix" values="0 0 0 0 0 0 0 0 0 0 0 0 0 0 0 0 0 0 127 0" result="hardAlpha"/>
                <feOffset dy="4"/>
                <feGaussianBlur stdDeviation="12.5"/>
                <feComposite in2="hardAlpha" operator="out"/>
                <feColorMatrix type="matrix" values="0 0 0 0 0.917647 0 0 0 0 0.364706 0 0 0 0 0.733333 0 0 0 0.25 0"/>
                <feBlend mode="normal" in2="BackgroundImageFix" result="effect1_dropShadow_1525_19690"/>
                <feBlend mode="normal" in="SourceGraphic" in2="effect1_dropShadow_1525_19690" result="shape"/>
            </filter>
            <clipPath id="clip0_1525_19690">
                <rect width="37.9978" height="37.9978" fill="white" transform="translate(35.9785 32.3135)"/>
            </clipPath>
        </defs>
    </symbol>
</svg>