<svg width="269" height="266" fill="none" xmlns="http://www.w3.org/2000/svg"><path opacity=".5" d="M242.851 50.804C238.75 45.18 203.641-1.349 146.733.918c-2.844.112-58.346 3.05-78.817 39.523-15.143 26.979.89 50.915-17.584 69.297-16.101 16.017-35.88 5.415-45.771 18.367-15.069 19.729 8.923 73.013 45.796 102.729 38.069 30.683 110.9 53.193 167.512 12.256 63.548-45.961 62.907-140.262 24.982-192.286Z" fill="url(#a)" fill-opacity=".5"/><path d="M65.69 168.486a122.03 122.03 0 0 1-15.811-1.041l.061-.467c33.98 4.435 55.808-6.693 58.197-7.983-11.943-18.61-3.501-45.993-3.414-46.267l.448.142c-.086.274-8.525 27.656 3.498 46.082l.135.207-.215.124c-.193.108-16.229 9.203-42.9 9.203Z" fill="#fff" style="mix-blend-mode:soft-light"/><path d="M86.677 144.705a1.331 1.331 0 0 1-1.321-1.203c-1.164-12.213-5.147-23.819-11.214-32.677-5.374-7.848-11.772-12.53-17.118-12.53h-.017c-19.472.037-23.545 44.743-23.584 45.199a1.33 1.33 0 0 1-2.65-.227c.168-1.939 4.336-47.584 26.228-47.624h.024c6.317 0 13.354 4.986 19.312 13.687 6.317 9.223 10.46 21.272 11.666 33.926a1.325 1.325 0 0 1-.699 1.305 1.34 1.34 0 0 1-.498.15 1.405 1.405 0 0 0-.129-.006Z" fill="url(#b)"/><path d="m5.556 236.713 25.633 12.977 15.536-47.659-25.595-63.897-7.257 1.779-11.01 91.758a4.978 4.978 0 0 0 2.693 5.042Z" fill="url(#c)"/><path style="mix-blend-mode:multiply" opacity=".52" d="M46.726 202.031 21.13 138.135l-4.28 1.053a139.11 139.11 0 0 0 .071 20.66c1.715 21.753 7.412 27.807 4.656 42.983-2.295 12.618-7.307 14.331-6.87 22.821.478 9.245 6.927 16.988 14.594 23.077l1.892.957 15.532-47.655Z" fill="url(#d)"/><path d="M21.129 138.138h95.574l31.63 102.113-117.145 9.439-10.06-111.552Z" fill="url(#e)"/><path d="M50.738 146.89a1.329 1.329 0 0 1-1.296-1.026c-.272-1.158-6.551-28.517 2.303-41.948 2.537-3.847 6.083-6.198 10.537-6.983 22.891-4.033 36.98 45.125 37.569 47.22a1.33 1.33 0 1 1-2.56.719c-.138-.485-14.01-48.947-34.547-45.321-3.758.663-6.63 2.57-8.779 5.829-8.231 12.482-1.998 39.604-1.934 39.877a1.33 1.33 0 0 1-1.293 1.633Z" fill="url(#f)"/><path style="mix-blend-mode:multiply" opacity=".3" d="M116.705 138.134H69.291c-2.338 2.379-3.998 5.12-4.157 8.196-.745 14.452 32.468 19.193 35.672 38.992 2.311 14.284-11.907 30.766-24.593 38.108-13.366 7.737-22.423 3.819-31.463 12.408-3.97 3.774-6.39 8.493-7.828 13.386l111.413-8.977-31.63-102.113Z" fill="url(#g)"/><path d="M54.417 147.695a3.714 3.714 0 1 0-7.333-1.19 3.714 3.714 0 0 0 7.333 1.19Z" fill="url(#h)"/><path d="M103.411 146.882a3.725 3.725 0 1 0-7.355-1.189 3.725 3.725 0 0 0 7.355 1.189Z" fill="url(#i)"/><path d="M186.873 32.215a85248.573 85248.573 0 0 0 24.905 208.294c.373 3.081-1.755 5.805-4.733 6.059a24831.328 24831.328 0 0 0-100.093 9.699c-5.952.291-9.22-3.037-9.603-6.366A97339.446 97339.446 0 0 1 71.714 25.085c-.388-3.4 2.498-6.323 8.45-6.032 33.529 2.393 67.057 4.753 100.584 7.08 2.999.199 5.753 2.933 6.125 6.082Z" fill="#26264F"/><path d="M191.509 32.07c8.355 70.47 16.709 140.199 25.062 209.186.375 3.091-1.765 5.831-4.762 6.086-34.645 2.934-69.29 5.927-103.935 8.977-3.161.281-6.067-2.223-6.452-5.569-8.6-74.502-17.2-149.79-25.801-225.863-.388-3.415 1.906-6.036 5.09-5.82 34.877 2.328 69.755 4.627 104.632 6.897 3.021.2 5.792 2.944 6.166 6.106Z" fill="url(#j)"/><path d="M189.494 43.598a83459.68 83459.68 0 0 0 23.213 193.962c.351 2.893-1.648 5.448-4.45 5.676-32.582 2.664-65.164 5.38-97.745 8.148-2.944.252-5.65-2.093-6.014-5.2A92428.674 92428.674 0 0 1 80.647 37.729c-.36-3.175 1.773-5.631 4.735-5.456 32.785 1.91 65.569 3.798 98.354 5.667 2.82.16 5.409 2.714 5.758 5.658Z" fill="url(#k)"/><path d="M189.494 43.598a83459.68 83459.68 0 0 0 23.213 193.962c.351 2.893-1.648 5.448-4.45 5.676-32.582 2.664-65.164 5.38-97.745 8.148-2.944.252-5.65-2.093-6.014-5.2A92428.674 92428.674 0 0 1 80.647 37.729c-.36-3.175 1.773-5.631 4.735-5.456 32.785 1.91 65.569 3.798 98.354 5.667 2.82.16 5.409 2.714 5.758 5.658Z" fill="url(#l)"/><path d="M183.74 37.938a80334.934 80334.934 0 0 1-97.19-5.6 74.325 74.325 0 0 0 5.693 18.413c10.746 23.314 26.533 24.597 32.708 44.91 6.363 20.93-7.986 27.48-.976 46.378 7.607 20.505 26.265 17.537 36.126 40.031 8.499 19.387-2.443 28.25 6.346 40.032 9.634 12.913 27.455 8.535 45.953 12.909a84629.051 84629.051 0 0 1-22.905-191.412c-.349-2.945-2.938-5.5-5.755-5.661Z" fill="url(#m)" style="mix-blend-mode:multiply" opacity=".35"/><path d="M136.423 29.332c.132 1.136-.632 2.005-1.704 1.94-1.073-.065-2.053-1.041-2.185-2.182-.132-1.14.633-2.012 1.706-1.94 1.074.072 2.051 1.045 2.183 2.182Z" fill="#DE8BDF"/><path d="M148.126 92.426c4.141 0 7.498-3.96 7.498-8.846 0-4.885-3.357-8.846-7.498-8.846-4.142 0-7.499 3.96-7.499 8.846s3.357 8.846 7.499 8.846Z" fill="#DD51D4"/><path d="M148.126 92.426c4.141 0 7.498-3.96 7.498-8.846 0-4.885-3.357-8.846-7.498-8.846-4.142 0-7.499 3.96-7.499 8.846s3.357 8.846 7.499 8.846Z" fill="#000" fill-opacity=".2"/><path d="M177.974 92.426c4.141 0 7.498-3.96 7.498-8.846 0-4.885-3.357-8.846-7.498-8.846s-7.497 3.96-7.497 8.846 3.356 8.846 7.497 8.846Z" fill="#DD51D4"/><path d="M177.974 92.426c4.141 0 7.498-3.96 7.498-8.846 0-4.885-3.357-8.846-7.498-8.846s-7.497 3.96-7.497 8.846 3.356 8.846 7.497 8.846Z" fill="#000" fill-opacity=".2"/><path d="M162.967 92.426c4.2 0 7.605-3.96 7.605-8.846 0-4.885-3.405-8.846-7.605-8.846-4.201 0-7.606 3.96-7.606 8.846s3.405 8.846 7.606 8.846Z" fill="#D8DEE8"/><path d="M207.823 92.426c4.141 0 7.499-3.96 7.499-8.846 0-4.885-3.358-8.846-7.499-8.846-4.142 0-7.499 3.96-7.499 8.846s3.357 8.846 7.499 8.846Z" fill="#DD51D4"/><path d="M207.823 92.426c4.141 0 7.499-3.96 7.499-8.846 0-4.885-3.358-8.846-7.499-8.846-4.142 0-7.499 3.96-7.499 8.846s3.357 8.846 7.499 8.846Z" fill="#000" fill-opacity=".2"/><path d="M192.816 92.426c4.201 0 7.606-3.96 7.606-8.846 0-4.885-3.405-8.846-7.606-8.846-4.2 0-7.605 3.96-7.605 8.846s3.405 8.846 7.605 8.846ZM222.664 92.426c4.2 0 7.605-3.96 7.605-8.846 0-4.885-3.405-8.846-7.605-8.846-4.2 0-7.605 3.96-7.605 8.846s3.405 8.846 7.605 8.846ZM133.121 92.426c4.2 0 7.605-3.96 7.605-8.846 0-4.885-3.405-8.846-7.605-8.846-4.2 0-7.605 3.96-7.605 8.846s3.405 8.846 7.605 8.846Z" fill="#D8DEE8"/><path d="m79.147 31.396 46.529 53.382H245.77l-58.193-46.622-108.43-6.76Z" fill="url(#n)"/><path d="m79.147 31.396 46.529 53.382H245.77l-58.193-46.622-108.43-6.76Z" fill="#DD51D4"/><path d="m79.147 31.396 46.529 53.382h15.048L91.663 32.175l-12.516-.78ZM105.102 33.014l50.451 51.764h14.863l-51.776-50.92-13.538-.844ZM132.281 34.708l53.036 50.07h14.937l-54.231-49.213-13.742-.857ZM173.823 37.299l-13.954-.87 55.355 48.35h15.01l-56.411-47.48Z" fill="#F4F7FA"/><path d="M230.248 84.778c.497 4.318 3.626 7.65 7.421 7.65 3.796 0 6.926-3.332 7.422-7.65h-14.843Z" fill="#DD51D4"/><path d="M230.248 84.778c.497 4.318 3.626 7.65 7.421 7.65 3.796 0 6.926-3.332 7.422-7.65h-14.843Z" fill="#000" fill-opacity=".2"/><path opacity=".63" d="M173.169 118.126c-6.499-14.968-22.972-22.238-36.803-16.237-13.831 6.001-19.777 23.001-13.283 37.97 6.495 14.969 22.973 22.237 36.803 16.236 13.831-6.001 19.778-23.004 13.283-37.969Zm-20.394 21.332.554 4.215-4.052.532-.512-3.927c-2.786.241-5.571-.15-7.261-.853l.604-5c1.861.722 4.414 1.271 7.102.917 2.356-.309 3.849-1.431 3.631-3.084-.206-1.572-1.66-2.389-4.85-3.021-4.619-.907-7.908-2.577-8.439-6.587-.477-3.637 1.711-6.826 6.02-8.276l-.516-3.927 4.051-.531.478 3.637c2.786-.241 4.722.097 6.173.576l-.582 4.829c-1.134-.314-3.161-1.015-6.138-.623-2.686.352-3.402 1.624-3.25 2.782.18 1.363 1.74 2.037 5.432 2.903 5.147 1.09 7.43 3.104 7.919 6.821.472 3.68-1.719 7.164-6.364 8.617Z" fill="#F4F7FA"/><g opacity=".63" fill="#F4F7FA"><path opacity=".63" d="m188.009 199.404-63.306 1.917a4.5 4.5 0 0 1-4.587-3.823l-2.567-16.877a4.503 4.503 0 0 1 4.347-5.178l63.374-1.468a4.503 4.503 0 0 1 4.559 3.825l2.498 16.427a4.504 4.504 0 0 1-4.318 5.177ZM190.135 213.278l-63.27 2.162a4.5 4.5 0 0 1-4.604-3.823l-.024-.159a4.49 4.49 0 0 1 2.476-4.722 4.5 4.5 0 0 1 1.832-.454l63.293-2.005a4.498 4.498 0 0 1 4.593 3.822 4.5 4.5 0 0 1-4.296 5.179Z"/></g><defs><linearGradient id="a" x1="268.965" y1="26.073" x2="-59.035" y2="59.353" gradientUnits="userSpaceOnUse"><stop stop-color="#7C4EAB"/><stop offset="1" stop-color="#DD51D4"/></linearGradient><linearGradient id="b" x1="60970.5" y1="80159.1" x2="62425.6" y2="102222" gradientUnits="userSpaceOnUse"><stop stop-color="#E38DDD"/><stop offset="1" stop-color="#9571F6"/></linearGradient><linearGradient id="c" x1="-8.046" y1="152.311" x2="24.356" y2="206.647" gradientUnits="userSpaceOnUse"><stop stop-color="#FF9085"/><stop offset="1" stop-color="#FB6FBB"/></linearGradient><linearGradient id="d" x1="14305.7" y1="225067" x2="47427" y2="241022" gradientUnits="userSpaceOnUse"><stop stop-color="#FF9085"/><stop offset="1" stop-color="#FB6FBB"/></linearGradient><linearGradient id="e" x1="71208.2" y1="209681" x2="178805" y2="304216" gradientUnits="userSpaceOnUse"><stop stop-color="#FF9085"/><stop offset="1" stop-color="#FB6FBB"/></linearGradient><linearGradient id="f" x1="61423.6" y1="71789" x2="66005.2" y2="102561" gradientUnits="userSpaceOnUse"><stop stop-color="#E38DDD"/><stop offset="1" stop-color="#9571F6"/></linearGradient><linearGradient id="g" x1="110114" y1="250872" x2="214669" y2="331666" gradientUnits="userSpaceOnUse"><stop stop-color="#FF9085"/><stop offset="1" stop-color="#FB6FBB"/></linearGradient><linearGradient id="h" x1="7096.34" y1="14811" x2="7211.06" y2="14853.6" gradientUnits="userSpaceOnUse"><stop stop-color="#E38DDD"/><stop offset="1" stop-color="#9571F6"/></linearGradient><linearGradient id="i" x1="10897.4" y1="14818.1" x2="11012.5" y2="14860.7" gradientUnits="userSpaceOnUse"><stop stop-color="#E38DDD"/><stop offset="1" stop-color="#9571F6"/></linearGradient><linearGradient id="j" x1="92.574" y1="137.253" x2="299.421" y2="104.523" gradientUnits="userSpaceOnUse"><stop stop-color="#444B8C"/><stop offset="1" stop-color="#26264F"/></linearGradient><linearGradient id="k" x1="185.561" y1="56.955" x2="-18.142" y2="479.473" gradientUnits="userSpaceOnUse"><stop stop-color="#FFC444"/><stop offset="1" stop-color="#F36F56"/></linearGradient><linearGradient id="l" x1="212.747" y1="53.174" x2="50.537" y2="62.933" gradientUnits="userSpaceOnUse"><stop stop-color="#7C4EAB"/><stop offset="1" stop-color="#DD51D4"/></linearGradient><linearGradient id="m" x1="212.4" y1="51.677" x2="57.946" y2="61.245" gradientUnits="userSpaceOnUse"><stop stop-color="#7C4EAB"/><stop offset="1" stop-color="#DD51D4"/></linearGradient><linearGradient id="n" x1="146213" y1="36403" x2="432448" y2="36403" gradientUnits="userSpaceOnUse"><stop stop-color="#FF9085"/><stop offset="1" stop-color="#FB6FBB"/></linearGradient></defs></svg>